<?xml version="1.0" encoding="utf-8"?>
<!-- Generator: Adobe Illustrator 16.0.0, SVG Export Plug-In . SVG Version: 6.00 Build 0)  -->
<!DOCTYPE svg PUBLIC "-//W3C//DTD SVG 1.1//EN" "http://www.w3.org/Graphics/SVG/1.1/DTD/svg11.dtd">
<svg version="1.1" id="Layer_1" xmlns="http://www.w3.org/2000/svg" xmlns:xlink="http://www.w3.org/1999/xlink" x="0px" y="0px"
	 width="145.384px" height="26.923px" viewBox="0 0 145.384 26.923" enable-background="new 0 0 145.384 26.923"
	 xml:space="preserve">
<g>
	<path fill="#F8F2E1" d="M124.54,21.74l13.068-6.234c0.008-0.002,0.016-0.01,0.021-0.01l2.438-1.162l-2.441-1.146
		c-0.008-0.002-0.016-0.008-0.021-0.01l-13.113-6.148l3.504,6.082l-94.85,0.316l-4.479-4.398l-4.834,0.02l4.43,4.396l-3.416,0.012
		l-4.479-4.397l-4.833,0.019l4.427,4.396l-3.101,0.012l-4.479-4.396L7.547,9.105l4.427,4.398l-2.206,0.008
		c-0.696,0.002-1.259,0.568-1.256,1.266c0.002,0.697,0.567,1.259,1.265,1.257l118.229-0.396L124.54,21.74z"/>
	<polygon fill="#F8F2E1" points="28.425,15.971 23.87,20.557 28.704,20.539 33.312,15.953 	"/>
	<polygon fill="#F8F2E1" points="20.125,15.998 15.568,20.582 20.402,20.568 25.009,15.984 	"/>
	<polygon fill="#F8F2E1" points="12.136,16.027 7.584,20.611 12.417,20.594 17.024,16.008 	"/>
</g>
</svg>
