<?xml version="1.0" encoding="utf-8"?>
<!-- Generator: Adobe Illustrator 16.0.0, SVG Export Plug-In . SVG Version: 6.00 Build 0)  -->
<!DOCTYPE svg PUBLIC "-//W3C//DTD SVG 1.1//EN" "http://www.w3.org/Graphics/SVG/1.1/DTD/svg11.dtd">
<svg version="1.1" id="Layer_1" xmlns="http://www.w3.org/2000/svg" xmlns:xlink="http://www.w3.org/1999/xlink" x="0px" y="0px"
	 width="145.384px" height="26.923px" viewBox="0 0 145.384 26.923" enable-background="new 0 0 145.384 26.923"
	 xml:space="preserve">
<g>
	<path fill="#F8F2E1" d="M19.608,15.639l118.229,0.396c0.698,0.002,1.263-0.561,1.265-1.257c0.004-0.698-0.56-1.264-1.256-1.266
		l-2.206-0.008l4.427-4.398l-4.834-0.016l-4.479,4.396l-3.102-0.012l4.428-4.396l-4.834-0.019l-4.479,4.397l-3.416-0.012l4.43-4.396
		l-4.834-0.02l-4.479,4.398l-94.85-0.316l3.504-6.082l-13.113,6.148c-0.006,0.002-0.014,0.008-0.021,0.01l-2.441,1.146l2.438,1.162
		c0.006,0,0.014,0.008,0.021,0.01l13.068,6.234L19.608,15.639z"/>
	<polygon fill="#F8F2E1" points="114.304,15.953 118.911,20.539 123.745,20.557 119.19,15.971 	"/>
	<polygon fill="#F8F2E1" points="122.606,15.984 127.213,20.568 132.047,20.582 127.491,15.998 	"/>
	<polygon fill="#F8F2E1" points="130.591,16.008 135.198,20.594 140.03,20.611 135.479,16.027 	"/>
</g>
</svg>
