<?xml version="1.0" encoding="utf-8"?>
<!-- Generator: Adobe Illustrator 16.0.0, SVG Export Plug-In . SVG Version: 6.00 Build 0)  -->
<!DOCTYPE svg PUBLIC "-//W3C//DTD SVG 1.1//EN" "http://www.w3.org/Graphics/SVG/1.1/DTD/svg11.dtd">
<svg version="1.1" id="Layer_1" xmlns="http://www.w3.org/2000/svg" xmlns:xlink="http://www.w3.org/1999/xlink" x="0px" y="0px"
	 width="27px" height="149px" viewBox="0 0 27 149" enable-background="new 0 0 27 149" xml:space="preserve">
<g>
	<path fill="#F8F2E0" d="M6.145,124.577l6.234,13.07c0.002,0.007,0.01,0.015,0.01,0.021l1.162,2.437l1.146-2.442
		c0.002-0.007,0.008-0.015,0.01-0.021l6.148-13.113l-6.082,3.504l-0.316-94.85l4.398-4.479l-0.019-4.834l-4.396,4.43l-0.012-3.416
		l4.397-4.479l-0.019-4.833l-4.396,4.427l-0.012-3.101l4.397-4.479l-0.016-4.834l-4.398,4.427l-0.008-2.206
		c-0.002-0.696-0.568-1.259-1.266-1.256c-0.697,0.002-1.26,0.567-1.258,1.265l0.396,118.229L6.145,124.577z"/>
	<polygon fill="#F8F2E0" points="11.913,28.463 7.327,23.907 7.346,28.741 11.932,33.349 	"/>
	<polygon fill="#F8F2E0" points="11.887,20.162 7.303,15.606 7.317,20.44 11.901,25.047 	"/>
	<polygon fill="#F8F2E0" points="11.858,12.174 7.273,7.622 7.29,12.455 11.876,17.062 	"/>
</g>
</svg>
