<?xml version="1.0" encoding="utf-8"?>
<!-- Generator: Adobe Illustrator 16.0.0, SVG Export Plug-In . SVG Version: 6.00 Build 0)  -->
<!DOCTYPE svg PUBLIC "-//W3C//DTD SVG 1.1//EN" "http://www.w3.org/Graphics/SVG/1.1/DTD/svg11.dtd">
<svg version="1.1" id="Layer_1" xmlns="http://www.w3.org/2000/svg" xmlns:xlink="http://www.w3.org/1999/xlink" x="0px" y="0px"
	 width="458.777px" height="163.529px" viewBox="0 0 458.777 163.529" enable-background="new 0 0 458.777 163.529"
	 xml:space="preserve">
<g>
	<path fill-rule="evenodd" clip-rule="evenodd" fill="#FFFAEE" d="M211.005,142.942c4.097-2.16,6.758-5.244,9.127-8.535
		c3.324-4.611,4.942-9.823,4.875-15.56c-0.025-2.165,1.894-3.169,3.487-1.736c1.148,1.034,2.116,2.566,2.532,4.052
		c1.216,4.329,2.116,8.746,3.178,13.292c5.567-2.764,10.927-6.298,14.324-11.974c0.956-1.591,0.463-4.038,0.678-6.088
		c0.515-4.943,1.053-9.884,1.595-14.947c-4.517,0.897-8.906,1.863-13.339,2.57c-0.861,0.137-2.004-0.58-2.759-1.212
		c-0.237-0.198,0.249-1.478,0.638-2.123c0.199-0.329,0.904-0.385,1.394-0.505c3.889-0.945,7.749-2.041,11.681-2.752
		c2.487-0.45,3.819-1.495,3.893-4.075c0.043-1.492-0.212-3.628,2.041-3.383c2.369,0.259,2.005,2.369,1.749,4.124
		c-0.048,0.336-0.046,0.679-0.079,1.18c4.518-0.726,8.868-1.483,13.239-2.09c1.703-0.236,3.458-0.216,5.174-0.112
		c0.49,0.029,0.936,0.76,1.403,1.169c-0.418,0.285-0.8,0.715-1.259,0.831c-2.972,0.746-5.984,1.351-8.944,2.144
		c-3.229,0.868-6.461,1.769-9.577,2.948c-0.606,0.228-1.092,1.853-0.97,2.743c0.735,5.403,1.741,11.009-0.65,16.009
		c-1.601,3.343-1.082,5.896,0.371,8.646c0.424,0.803,1.673,1.576,2.594,1.641c6.547,0.463,9.986-3.908,12.916-8.785
		c1.538-2.563,2.709-5.348,4.051-8.033c0.246-0.484,0.41-1.08,0.795-1.414c1.103-0.964,2.302-1.815,3.464-2.715
		c0.823,1.397,1.713,2.762,2.434,4.212c0.303,0.604,0.24,1.391,0.335,2.05c1.905-1.938,3.571-4.041,5.63-5.638
		c3.765-2.921,6.28-2.074,8.157,2.556c1.559-1.244,3.012-2.559,4.615-3.648c2.95-1.999,5.175-0.95,5.753,2.611
		c0.477,2.928,0.939,5.857,1.507,9.401c6.049-4.174,12.034-7.534,15.213-14.185c1.253-2.624,3.053-5.019,4.822-7.354
		c1.432-1.894,3.095-0.964,4.034,0.518c1.405,2.211,2.435,4.662,3.704,7.168c0.171-0.205,0.681-0.533,0.731-0.918
		c0.24-1.882,1.849-2.081,2.782-1.513c0.746,0.452,1.083,2.106,1.036,3.203c-0.064,1.593-0.636,3.163-0.992,4.744
		c0.282,0.162,0.564,0.326,0.846,0.491c1.356-0.642,2.725-1.259,4.064-1.93c9.146-4.566,15.101-11.602,17.039-21.829
		c0.177-0.938,1.132-1.729,1.724-2.589c0.743,1.028,2.122,2.058,2.119,3.084c-0.019,5.062-0.395,10.121-0.67,15.181
		c-0.046,0.88-0.21,1.753-0.395,3.231c5.676-0.993,11.018-1.802,16.303-2.883c10.156-2.078,20.337-4.089,30.4-6.557
		c7.361-1.805,14.58-4.21,21.812-6.516c3.739-1.193,7.876-2.055,10.936-4.291c7.773-5.673,14.459-12.312,12.891-23.368
		c-0.551-3.889-0.959-7.787-3.641-10.898c-0.924-1.069-2.208-1.819-3.284-2.763c-0.712-0.629-1.344-1.344-1.762-2.301
		c3.992,0.046,6.806,2.175,8.564,5.222c4.69,8.115,4.884,20.323-1.258,28.99c-5.981,8.438-14.567,11.996-23.507,14.977
		c-8.829,2.942-17.983,4.948-27.066,7.063c-5.994,1.397-12.251,1.778-18.147,3.474c-8.426,2.422-17.039,3.343-25.654,4.308
		c-2.506,0.281-5.135-0.661-7.721-0.91c-0.97-0.095-2.113-0.078-2.941,0.35c-2.57,1.321-4.931,3.077-7.55,4.273
		c-3.924,1.79-5.169,1.169-6.982-3.027c-2.068,1.43-4.068,2.875-6.133,4.222c-3.725,2.438-5.885,1.961-8.084-1.646
		c-3.535,2.588-7.014,5.268-10.633,7.743c-3.017,2.063-5.576,0.937-6.38-2.729c-0.577-2.626-0.945-5.299-1.509-8.536
		c-1.183,0.842-2.204,1.346-2.927,2.125c-3.092,3.324-5.208,7.124-5.319,11.812c-0.015,0.632,0.144,1.47-0.191,1.852
		c-0.631,0.726-1.506,1.424-2.401,1.649c-0.356,0.091-1.53-1.145-1.486-1.707c0.215-2.694,0.775-5.363,1.104-8.053
		c0.308-2.494,0.48-5.004,0.288-7.625c-4.298,1.865-6.852,4.98-8.3,8.962c-0.828,2.271-1.125,4.739-1.966,7.005
		c-0.299,0.81-1.492,1.286-2.278,1.915c-0.487-0.853-1.416-1.724-1.384-2.557c0.131-3.56,0.545-7.107,0.857-10.657
		c-0.368-0.116-0.737-0.23-1.106-0.346c-0.935,1.815-2.019,3.571-2.78,5.455c-2.893,7.142-7.956,11.524-15.674,12.605
		c-2.685,0.378-5.707-1.656-7.03-4.61c-0.325-0.726-0.591-1.476-0.729-1.825c-4.431,3.412-8.699,6.964-13.246,10.109
		c-3.395,2.347-6.98,4.647-10.817,6.032c-2.225,0.801-5.116-0.257-7.708-0.478c-0.03-0.271-0.061-0.545-0.091-0.816
		c-1.205,1.081-2.459,2.112-3.607,3.252c-2.825,2.799-5.053,2.616-7.829-1.005c-1.729,1.806-3.479,3.519-5.101,5.348
		c-2.138,2.415-4.903,3.213-7.799,2.403c-3.033-0.847-4.13-3.56-4.509-6.508c-0.26-2.024-0.473-4.056-0.931-6.114
		c-0.109,6.521-4.147,11.076-7.882,15.609c-3.773,4.58-9.692,3.603-11.996-1.823c-1.01-2.377-1.319-5.054-1.92-7.601
		c-0.281-1.198-0.502-2.408-0.788-3.792c-4.449,3.097-6.934,7.281-9.247,11.59c-1.452,2.703-2.888,5.422-4.187,8.2
		c-0.629,1.344-1.516,2.452-2.783,1.425c-0.795-0.642-1.335-2.44-1.036-3.433c0.779-2.59,2.062-5.03,3.184-7.511
		c4.319-9.556,7.697-19.418,9.714-29.726c0.099-0.508,0.037-1.048,0.066-2.313c-1.527,1.822-2.708,3.091-3.728,4.477
		c-4.431,6.024-9.166,11.866-13.118,18.194c-4.086,6.54-9.15,12.055-15.039,16.855c-3.8,3.099-8.214,5.004-13.002,2.41
		c-2.113-1.146-4.113-3.027-5.406-5.061c-5.122-8.048-3.644-16.63-1-24.982c1.883-5.944,5.085-11.359,10.269-15.104
		c3.897-2.816,8.004-5.323,13.252-2.747c4.353,2.14,5.747,4.167,4.931,9.183c-0.328,2.018-0.974,4.09-1.987,5.842
		c-0.497,0.858-2.161,1.041-3.298,1.529c0.122-0.94,0.058-1.952,0.395-2.806c1.458-3.684,2.09-8.57-0.664-9.898
		c-1.099-0.528-2.618-0.989-3.685-0.652c-8.398,2.655-12.873,9.14-15.463,17.011c-1.678,5.097-2.382,10.48-1.219,15.848
		c0.412,1.899,1.172,3.837,2.228,5.464c3.703,5.707,8.339,3.889,12.497-0.349c6.793-6.922,13.322-14.138,19.522-21.595
		c4.933-5.931,9.217-12.403,13.766-18.653c0.526-0.724,0.806-1.631,1.356-2.332c0.533-0.681,1.412-1.783,1.879-1.667
		c0.86,0.215,2.011,1.087,2.18,1.869c0.374,1.73,0.5,3.623,0.217,5.367c-1.042,6.415-2.294,12.797-3.376,18.7
		c1.172-0.003,3.253-0.619,4.395,0.152c1.29,0.87,2.024,2.911,2.486,4.583c0.865,3.13,1.238,6.393,2.049,9.539
		c0.554,2.157,2.247,2.814,3.894,1.506c7.394-5.865,10.526-11.265,8.006-20.952c-0.467-1.801-1.89-4.063,0.108-5.173
		c0.995-0.553,3.28,0.854,4.8,1.697c2.939,1.629,3.11,4.834,3.706,7.637c0.527,2.473,0.456,5.065,0.818,7.581
		c0.215,1.494,0.757,2.943,1.255,4.796c5.948-2.644,10.176-6.387,12.179-12.361c0.401-1.201,0.735-2.424,1.104-3.637
		c0.435-1.427,0.846-3.09,2.864-2.335c1.98,0.741,2.116,2.543,1.657,4.292c-0.571,2.178-1.379,4.291-1.999,6.456
		C210.632,141.294,210.868,141.867,211.005,142.942z M222.288,138.844c1.595-0.36,3.236-0.709,4.868-1.107
		c1.856-0.455,2.852-1.889,2.7-3.58c-0.278-3.132-0.971-6.228-1.496-9.37C226.316,129.517,224.395,133.967,222.288,138.844z
		 M324.579,113.568c4.733-0.848,6.663-3.319,5.373-6.883C326.056,107.768,323.669,110.825,324.579,113.568z M359.782,100.438
		c-1.728,2.063-3.32,3.965-4.969,5.933C358.897,107.502,360.561,105.469,359.782,100.438z"/>
	<path fill-rule="evenodd" clip-rule="evenodd" fill="#FFFAEE" d="M60.735,56.19c-3.042,3.632-5.83,6.575-8.178,9.833
		c-8.16,11.328-12.65,24.386-17.223,37.384c-0.643,1.828-1.793,3.142-3.498,2.422c-0.888-0.377-1.653-2.492-1.482-3.68
		c1.055-7.372,4.826-13.798,7.453-20.636c2.529-6.582,4.452-13.407,6.429-20.189c0.794-2.725,1.022-5.616,0.901-8.651
		c-4.185,3.774-8.389,7.529-12.549,11.33c-5.54,5.062-11.694,9.181-18.969,11.14c-2.598,0.7-5.604,0.55-8.299,0.077
		c-3.734-0.654-5.833-4.251-5.211-7.958c0.088-0.523,0.244-1.101,0.555-1.51c1.291-1.696,7.853-1.615,9.656,0.414
		c-1.063,0.301-1.925,0.69-2.813,0.766c-1.733,0.147-3.291,0.734-3.133,2.631c0.163,1.944,1.759,2.496,3.64,2.366
		c5.345-0.371,10.216-2.338,14.212-5.622c7.36-6.045,14.279-12.621,21.448-18.901c0.815-0.715,2.2-1.496,3.05-1.262
		c0.955,0.262,2.017,1.524,2.309,2.556c1.231,4.359,1.057,8.789,0.014,13.187c-0.095,0.401-0.149,0.812-0.344,1.891
		c2.342-3.084,4.203-5.671,6.208-8.142c2.653-3.272,6.101-4.639,7.834-2.646c1.657,1.905,2.422,4.68,3.238,7.185
		c0.449,1.376,0.196,2.983,0.293,5.284c2.589-4.46,4.542-8.337,6.976-11.885c3.17-4.624,6.619-9.073,10.163-13.422
		c1.404-1.724,4.71-0.617,5.001,1.883c0.5,4.272,0.674,8.65,0.352,12.937c-0.438,5.836-1.701,11.61-2.172,17.444
		c-0.319,3.954-0.009,7.978,0.258,11.953c0.151,2.255,2.651,3.743,4.637,2.615c3.685-2.096,7.175-4.543,10.654-6.974
		c0.41-0.287,0.338-1.404,0.325-2.132c-0.068-3.96,0.165-7.814,3.383-10.723c1.226-1.107,2.548-1.724,4.178-0.708
		c1.639,1.021,3.196,2.375,2.614,4.344c-0.724,2.45-2.061,4.729-3.23,7.033c-0.465,0.913-1.194,1.695-1.426,2.76
		c9.09-6.844,13.263-16.318,14.44-27.574c1.803-0.457,3.079-0.306,4.469,1.562c3.337,4.486,2.5,9.613,3.057,14.576
		c0.238,2.119,0.842,5.244,2.227,5.894c1.445,0.679,4.243-0.729,6.062-1.853c2.04-1.262,3.891-3.033,5.387-4.926
		c3.298-4.169,3.281-9.312,0.66-13.974c-0.68-1.208-0.504-2.897-0.72-4.366c1.453,0.042,2.948-0.121,4.351,0.164
		c3.902,0.793,5.105,3.655,5.173,7.26c0.042,2.152,0.107,4.303,0.129,6.456c0.029,3.123,2.032,4.579,4.912,3.296
		c5.706-2.542,9.478-6.991,11.363-12.854c0.64-1.991,1.582-2.382,4.113-2.078c-0.387,2.271-0.884,4.461-1.099,6.68
		c-0.13,1.345,0.177,2.733,0.286,4.1c1.188-0.299,2.55-0.324,3.534-0.947c3.91-2.481,6.895-5.826,8.911-10.055
		c0.383-0.803,1.479-1.262,2.247-1.88c0.621,0.793,1.74,1.555,1.787,2.382c0.428,7.105,0.663,14.221,0.959,21.429
		c3.267-2.22,7.106-4.661,10.766-7.348c7.836-5.756,15.783-11.39,23.297-17.544c6.846-5.605,12.875-12.146,12.977-21.769
		c0.115-10.508-4.771-18.341-14.258-22.831c-2.833-1.341-6.334-1.252-9.515-1.889c-0.804-0.162-1.553-0.598-2.328-0.908
		c0.836-0.56,1.744-1.678,2.496-1.583c3.562,0.453,7.281,0.724,10.583,1.997c12.44,4.797,19.442,20.052,15.282,32.507
		c-2.472,7.401-7.311,13.095-13.267,17.792c-8.242,6.498-16.727,12.686-25.147,18.953c-3.625,2.698-7.443,5.142-10.977,7.95
		c-1.348,1.072-2.339,2.734-3.16,4.303c-2.416,4.615-4.483,9.419-7.044,13.947c-1.663,2.938-4.276,5.154-7.545,6.349
		c-2.66,0.971-4.316-0.033-4.925-2.853c-0.895-4.135,0.072-7.88,3.082-10.747c3.682-3.506,7.602-6.782,11.609-9.918
		c1.978-1.549,3.282-3.161,3.707-5.711c0.871-5.229,0.894-10.416,0.077-16.509c-1.134,1.354-1.7,2.248-2.468,2.908
		c-2.316,1.986-4.565,4.11-7.12,5.744c-2.391,1.532-5.576,0.098-7.296-2.367c-3.325,2.135-6.436,4.649-9.958,6.27
		c-5.219,2.402-8.001,0.44-9.556-6.795c-0.796,5.582-3.852,8.946-7.51,11.526c-2.664,1.879-5.904,3.086-9.047,4.088
		c-2.407,0.768-5.242-1.931-5.884-5.237c-0.774-4-1.386-8.031-2.187-12.747c-0.947,2.711-1.754,4.827-2.426,6.983
		c-1.937,6.215-6.308,10.805-10.501,15.446c-1.469,1.626-3.864,2.144-6.02,0.835c-1.745-1.062-2.619,0.015-3.953,0.895
		c-3.037,2.005-6.138,4.251-9.549,5.268c-4.713,1.404-8.029-1.055-9.393-5.812c-1.533-5.349-1.316-10.792-0.716-16.218
		c0.827-7.48,1.827-14.943,2.758-22.412c0.067-0.543,0.183-1.079,0.277-1.619c-0.349-0.126-0.699-0.252-1.049-0.378
		c-1.603,1.914-3.468,3.668-4.758,5.774c-3.584,5.847-7.273,11.676-10.246,17.837c-1.92,3.982-2.652,8.539-3.924,12.836
		c-1.196,4.036-2.428,8.064-3.594,12.11c-0.398,1.387-0.496,2.876-1.021,4.203c-0.287,0.725-1.322,1.786-1.776,1.676
		c-0.95-0.227-2.341-1.027-2.468-1.775c-0.272-1.614-0.035-3.378,0.297-5.021c1.565-7.734,3.458-15.41,4.765-23.186
		C62.283,64.955,62.48,60.802,60.735,56.19z M171.578,100.275c5.515-3.692,8.318-8.96,10.629-14.636
		c-3.463,2.597-6.824,5.274-9.794,8.332C170.956,95.472,170.179,97.669,171.578,100.275z"/>
	<path fill-rule="evenodd" clip-rule="evenodd" fill="#FFFAEE" d="M210.515,96.822c2.167,0.027,3.882-0.441,4.765,0.213
		c0.737,0.548,2.223,2.254,0.616,3.672c-1.352,1.199-3.087,2.56-4.701,0.974C210.429,100.929,210.773,99.049,210.515,96.822z"/>
</g>
</svg>
