<?xml version="1.0" encoding="utf-8"?>
<!-- Generator: Adobe Illustrator 16.0.0, SVG Export Plug-In . SVG Version: 6.00 Build 0)  -->
<!DOCTYPE svg PUBLIC "-//W3C//DTD SVG 1.1//EN" "http://www.w3.org/Graphics/SVG/1.1/DTD/svg11.dtd">
<svg version="1.1" id="Layer_1" xmlns="http://www.w3.org/2000/svg" xmlns:xlink="http://www.w3.org/1999/xlink" x="0px" y="0px"
	 width="269px" height="269px" viewBox="0 0 269 269" enable-background="new 0 0 269 269" xml:space="preserve">
<g>
	<g>
		<path fill="#FFFEF2" d="M203.66,51.335l-0.025-0.017c0.67-1.115,0.392-2.562-0.705-3.317c-1.055-0.727-2.663-0.325-3.525,0.638
			l-0.02-0.012c0,0-6.25,7.71-22.277,8.018c-11.295-0.158-20.964-6.476-25.295-15.516c-1.245-2.276-3.074-1.179-6.459,0.641
			c-3.567,1.916-8.473,3.555-8.473,3.555l0,0c-21.688,7.089-59.289,23.581-58.727,52.683c0.559,29.15,25.673,37.858,43.106,44.781
			c1.559,0.621,3.222,1.286,4.927,1.961l-21.764,31.165l-0.026,0.034l-1.191,1.706c-0.746-0.07-1.191-0.103-1.191-0.103
			c-36.9,0-49.379,19.068-46.166,30.502c0.32,1.018,3.268,8.612,16.108,8.126c2.983-0.242,5.706-0.846,8.118-1.716
			c9.703-3.926,18.246-15.58,18.246-15.58l1.375-1.94c0.28,0.124,0.547,0.244,0.81,0.381c1.376,0.76,4.417,2.465,7.644,4.462
			c0.1,0.061,0.204,0.104,0.292,0.158c0.017,0,0.033,0,0.033,0.015c0.258,0.176,0.542,0.372,0.81,0.561
			c1.104,0.711,2.174,1.444,3.154,2.225l-0.014,0.005c1.23,0.917,2.485,1.885,3.752,2.921c0.029,0.02,0.059,0.042,0.07,0.054
			c1.267,1.029,2.534,2.122,3.847,3.286c0.018,0.015,0.042,0.031,0.06,0.054c4.242,3.882,8.151,7.896,11.107,10.894
			c1.361,1.371,5.048,5.095,7.499,1.873c32.082-41.941,57.23-31.924,57.502-58.604c0.217-21.159-21.326-35.024-43.66-46.74
			l7.709-11.424l0,0c0,0,5.105-7.607,7.29-4.021h0.018c-0.188,0.899-0.313,1.816-0.313,2.768c0,7.542,5.922,13.653,13.229,13.653
			c7.297,0,13.232-7.019,13.232-13.653c0-4.269-2.422-12.827-11.148-15.354c-14.696-2.855-24.836,9.229-27.62,13.049l-0.796,1.14
			l0,0l-7.527,10.781c-13.522-6.882-26.647-13.157-34.714-19.92c-16.472-13.81-3.811-28.38,4.666-34.458l0,0
			c0,0,4.177-2.52,5.711-1.303c0.646,0.392,2.576,2.195,3.338,3.112l0.013-0.007c6.114,8.443,17.557,15.743,31.106,15.743
			c0.004,0-0.013,0.018-0.013,0.018C190.715,78.608,203.66,51.335,203.66,51.335z M90.399,196.16c0,0.003-9.02,12.106-20.719,12.233
			c-10.769-0.885-6.121-13.36,4.08-15.538c2.33-0.499,4.357-0.714,6.224-0.836c0.767-0.005,1.584,0.029,2.459,0.073
			c0.033,0,0.075,0.002,0.125,0.002c0.846,0.062,1.75,0.149,2.675,0.284c0.046,0.005,0.109,0.026,0.154,0.026
			c1.955,0.274,4.086,0.724,6.41,1.438c0.013,0,0.195,0.037,0.195,0.037L90.399,196.16z M167.184,166.401
			c1.025,1.098,3.646,4.376,3.738,9.231c-0.107,1.733-0.341,3.381-0.746,4.818c0,0.029,0,0.041-0.017,0.063
			c-1.751,6.175-5.485,9.659-5.485,9.659c-8.226,8.217-4.867,5.742-22.172-2.592c-10.13-4.889-22.263-7.479-30.601-8.793
			l21.109-31.258C146.004,152.937,160.453,159.671,167.184,166.401z"/>
		<path fill="#FFFEF2" d="M134.563,1.285c-73.455,0-133.217,59.76-133.217,133.211c0,73.457,59.762,133.218,133.217,133.218
			S267.78,207.953,267.78,134.496C267.78,61.045,208.019,1.285,134.563,1.285z M134.563,257.412
			c-67.774,0-122.913-55.14-122.913-122.916c0-67.77,55.139-122.909,122.913-122.909c67.778,0,122.923,55.14,122.923,122.909
			C257.486,202.272,202.342,257.412,134.563,257.412z"/>
	</g>
</g>
</svg>
