<?xml version="1.0" encoding="utf-8"?>
<!-- Generator: Adobe Illustrator 16.0.0, SVG Export Plug-In . SVG Version: 6.00 Build 0)  -->
<!DOCTYPE svg PUBLIC "-//W3C//DTD SVG 1.1//EN" "http://www.w3.org/Graphics/SVG/1.1/DTD/svg11.dtd">
<svg version="1.1" id="Layer_1" xmlns="http://www.w3.org/2000/svg" xmlns:xlink="http://www.w3.org/1999/xlink" x="0px" y="0px"
	 width="508px" height="171px" viewBox="0 0 508 171" enable-background="new 0 0 508 171" xml:space="preserve">
<g>
	<path fill-rule="evenodd" clip-rule="evenodd" fill="#DECD9F" d="M391.474,92.036c-1.258,1.06-2.331,2.033-3.479,2.911
		c-0.91,0.695-1.866,1.357-2.883,1.88c-1.295,0.664-2.709,0.509-3.642-0.548c-0.628-0.711-0.919-1.84-1.067-2.825
		c-0.252-1.681-0.272-3.396-0.394-5.096c-0.042-0.582-0.095-1.162-0.166-2.017c-0.773,0.396-1.471,0.571-1.906,1.008
		c-1.987,1.994-3.709,4.182-4.354,7.018c-0.396,1.738-0.8,3.475-1.156,5.22c-0.258,1.265-2.801,2.737-4.021,2.246
		c-0.25-0.101-0.561-0.429-0.573-0.665c-0.055-0.962-0.223-1.995,0.046-2.881c0.93-3.063,1.677-6.146,1.562-9.36
		c-0.022-0.631-0.349-1.45-0.819-1.819c-0.729-0.571-1.58-0.148-2.317,0.338c-2.428,1.596-3.959,3.867-5.33,6.398
		c-1.586,2.93-3.494,5.697-5.409,8.433c-0.6,0.858-1.647,1.421-2.538,2.052c-0.877,0.625-1.729,0.257-2.126-0.546
		c-0.741-1.501-1.601-3.058-1.824-4.673c-0.346-2.492-0.198-5.055-0.266-7.794c-0.297,0.048-0.721,0.021-1.051,0.185
		c-2.309,1.141-4.7,1.969-7.283,2.193c-0.901,0.078-1.155,0.575-1.072,1.486c0.194,2.099,0.382,4.209,0.355,6.312
		c-0.026,2.127-1.224,3.859-2.508,5.438c-1.234,1.515-2.692,2.796-4.597,3.512c-3.292,1.238-6.16-0.289-7.474-3.647
		c-0.439-1.122-0.797-2.274-1.239-3.551c-1.233,1.366-2.394,2.595-3.493,3.876c-2.658,3.098-5.825,5.49-9.853,6.35
		c-3.965,0.847-6.252-0.184-7.383-4.559c-0.058-0.221-0.158-0.43-0.308-0.824c-0.312,0.259-0.597,0.398-0.74,0.627
		c-2.739,4.36-6.3,8.041-9.818,11.738c-2.996,3.146-6.083,6.223-9.311,9.129c-2.524,2.273-3.829,4.963-4.57,8.252
		c-0.896,3.98-2.193,7.928-4.728,11.244c-1.025,1.339-2.552,2.184-4.34,2.231c-1.379,0.037-2.463-1.148-2.962-3.124
		c-0.889-3.519,0.149-6.543,2.457-9.189c2.247-2.578,4.589-5.072,6.829-7.656c0.443-0.512,0.777-1.232,0.887-1.9
		c0.503-3.09,0.993-6.187,1.313-9.299c0.194-1.885,0.079-3.803,0.077-5.705c0-0.293-0.135-0.587-0.265-1.114
		c-0.863,1.011-1.605,1.854-2.319,2.723c-2.29,2.782-5.312,4.342-8.797,4.815c-2.15,0.293-3.915-0.789-5.128-2.645
		c-0.318-0.488-0.668-0.957-1.096-1.566c-1.087,1.12-2.141,2.039-2.994,3.117c-2.792,3.53-6.362,5.982-10.429,7.777
		c-1.02,0.451-2.058,0.872-3.113,1.231c-1.775,0.604-3.545,0.298-5.271-0.228c-1.253-0.382-2.521-0.791-3.672-1.397
		c-0.521-0.274-0.839-1.024-1.127-1.616c-0.15-0.311-0.036-0.748-0.044-1.363c-1.645,0.662-3.162,1.127-4.54,1.856
		c-3.534,1.868-10.157,0.911-12.901-2.412c-0.914-1.105-1.871-2.181-2.709-3.343c-0.874-1.209-1.088-2.557-0.287-3.909
		c0.188-0.319,0.512-0.662,0.848-0.774c3.138-1.053,4.191-3.734,5.005-6.514c0.316-1.078,0.332-2.304,0.198-3.429
		c-0.077-0.645-0.613-1.396-1.166-1.758c-0.291-0.19-1.128,0.25-1.604,0.573c-1.848,1.26-2.793,3.228-3.367,5.236
		c-1.034,3.624-1.929,7.309-2.55,11.022c-0.348,2.085-0.099,4.283,0.007,6.424c0.113,2.288,0.363,4.571,0.581,6.854
		c0.135,1.428-0.527,2.313-2.001,2.577c-1.415,0.254-1.903-0.08-2.336-1.674c-1.146-4.21-2.277-8.424-3.422-12.633
		c-0.078-0.289-0.218-0.562-0.452-1.15c-0.53,0.859-0.871,1.507-1.301,2.09c-1.742,2.361-3.232,5.001-5.337,6.981
		c-3.168,2.98-7.087,4.327-11.451,2.714c-2.02-0.746-3.064-2.549-3.846-4.477c-0.168-0.414-0.393-0.807-0.591-1.209
		c-0.154-0.012-0.309-0.024-0.463-0.035c-0.312,0.81-0.777,1.596-0.907,2.436c-0.355,2.271-0.634,4.561-0.815,6.854
		c-0.111,1.414-1.695,2.969-2.997,2.491c-0.573-0.21-1.142-1.136-1.234-1.804c-0.179-1.283,0.094-2.626-0.026-3.924
		c-0.156-1.701-0.504-3.385-0.794-5.072c-0.03-0.169-0.224-0.311-0.531-0.713c-0.708,0.919-1.356,1.735-1.978,2.57
		c-1.926,2.588-3.798,5.217-5.777,7.763c-1.385,1.781-5.199,2.907-7.054,1.749c-0.329-0.205-0.704-0.383-0.95-0.666
		c-0.611-0.703-0.921-0.85-1.557,0.124c-1.485,2.271-3.743,3.937-6.596,3.275c-1.829-0.425-4.091-2.755-4.26-4.938
		c-0.061-0.775-0.238-1.543-0.363-2.314c-0.139-0.045-0.276-0.091-0.415-0.137c-0.678,1.021-1.377,2.027-2.03,3.064
		c-1.592,2.526-3.098,5.109-4.768,7.582c-0.981,1.452-2.647,2.134-4.281,1.893c-1.785-0.264-2.687-1.879-3.351-3.459
		c-1.184-2.816-1.159-5.835-1.391-8.808c-0.039-0.499-0.086-0.998-0.153-1.751c-0.401,0.328-0.651,0.446-0.771,0.645
		c-2.181,3.588-3.84,7.42-5.071,11.421c-0.721,2.342-1.215,4.753-1.794,7.138c-0.33,1.361-1.56,1.299-2.5,1.428
		c-1.071,0.148-1.773-0.738-1.857-1.676c-0.24-2.687-0.365-5.387-0.405-8.084c-0.021-1.378,0.248-2.76,0.361-4.141
		c0.021-0.256-0.075-0.521-0.171-1.115c-0.603,0.73-1.02,1.225-1.424,1.729c-2.391,2.987-4.612,6.133-7.216,8.922
		c-2.6,2.784-5.425,5.413-8.437,7.741c-3.263,2.521-6.996,4.314-11.213,4.682c-1.375,0.122-2.791,0.029-4.166-0.145
		c-1.374-0.174-2.226-1.407-2.124-2.756c0.087-1.143,1.414-1.898,2.344-1.238c1.648,1.168,3.373,0.746,5.042,0.287
		c2.727-0.751,5.392-1.767,7.653-3.492c2.423-1.85,4.899-3.709,6.969-5.922c3.043-3.256,5.906-6.713,8.546-10.303
		c2.154-2.932,4.283-6.018,5.651-9.352c1.147-2.798,1.27-6.041,1.688-9.108c0.771-5.653,1.42-11.321,2.133-16.981
		c0.132-1.045,0.311-2.213,1.558-2.41c1.232-0.193,1.784,0.845,2.265,1.787c0.144,0.281,0.309,0.599,0.306,0.898
		c-0.033,3.693,0.064,7.397-0.201,11.076c-0.204,2.835-0.729,5.669-1.381,8.441c-0.469,1.994-1.475,3.855-2.081,5.824
		c-1.062,3.461-1.526,7.035-1.879,10.619c0.11,0.037,0.22,0.072,0.329,0.107c0.42-0.83,0.86-1.65,1.257-2.491
		c1.356-2.874,2.682-5.77,4.722-8.244c0.497-0.604,1.12-1.295,1.812-1.485c0.633-0.174,1.607,0.064,2.136,0.488
		c1.774,1.425,1.663,3.571,1.853,5.59c0.263,2.805,0.553,5.607,0.884,8.406c0.056,0.477,0.37,0.922,0.71,1.728
		c0.855-1.022,1.62-1.767,2.183-2.64c2.5-3.883,4.861-7.856,7.437-11.688c1.521-2.261,3.508-4.152,5.977-5.416
		c2.139-1.096,4.567-0.926,6.561,1.258c1.821,1.993,3.079,4.194,2.803,7.092c-0.092,0.965,0.331,2.053,0.758,2.973
		c0.624,1.345,1.932,1.432,3.098,0.108c1.552-1.761,2.948-3.66,4.371-5.53c1.421-1.867,2.668-3.883,4.221-5.631
		c1.786-2.009,4.321-2.149,5.533,0.64c0.044,0.1,0.164,0.167,0.38,0.376c0.292-0.373,0.571-0.719,0.838-1.072
		c0.504-0.668,0.951-1.388,1.513-2.003c1.059-1.157,2.24-1.257,3.134-0.003c0.878,1.229,1.576,2.671,2.001,4.123
		c0.902,3.083,3.39,4.37,6.344,3.372c3.01-1.017,4.983-3.224,6.77-5.652c2.353-3.2,3.925-6.761,4.227-10.739
		c0.115-1.506-0.29-3.062-0.534-4.582c-0.655-4.096-1.403-8.176-2.007-12.279c-0.26-1.769-0.338-3.576-0.335-5.367
		c0.001-0.941,0.346-1.893,1.412-2.279c0.96-0.35,1.803-0.213,2.121,0.854c0.428,1.433,0.798,2.892,1.061,4.363
		c0.523,2.927,0.995,5.866,1.413,8.81c0.251,1.773,0.45,3.563,0.513,5.352c0.13,3.745,0.476,7.449,1.74,11.1
		c0.648-2.668,1.154-5.381,1.981-7.993c1.163-3.672,2.317-7.363,5.635-9.889c3.683-2.806,6.229-1.876,8.095,1.97
		c1.261,2.599,0.822,5.287,0.083,7.941c-0.729,2.625-2.148,4.859-4.019,6.796c-0.827,0.856-0.597,1.531,0.024,2.296
		c2.308,2.843,5.335,3.272,8.618,2.385c3.464-0.938,6.56-2.638,9.193-5.115c3.016-2.841,4.71-6.262,4.571-10.477
		c-0.047-1.435-0.195-2.871-0.167-4.304c0.036-1.813,1.594-2.825,2.855-1.871c0.51,0.386,1.074,1.026,1.148,1.609
		c0.389,3.052,2.137,5.565,3.137,8.366c1.119,3.135,2.544,6.181,2.696,9.588c0.006,0.146,0.099,0.289,0.262,0.736
		c1.515-1.518,2.955-2.873,4.29-4.325c1.455-1.583,2.893-3.196,4.184-4.912c1.045-1.39,1.861-2.95,2.782-4.433
		c2.09-3.363,5.031-5.326,8.979-6.11c2.378-0.473,4.104,0.22,5.809,1.618c0.853,0.701,1.416,0.591,1.55-0.365
		c0.16-1.134,0.913-1.632,1.792-1.492c0.709,0.113,1.455,0.719,1.933,1.311c0.31,0.385,0.366,1.199,0.195,1.708
		c-0.873,2.599-0.772,5.287-0.672,7.932c0.16,4.239,0.076,8.448-0.523,12.647c-0.036,0.26-0.007,0.527-0.009,0.956
		c0.364-0.167,0.647-0.218,0.812-0.385c4.39-4.468,8.795-8.921,13.137-13.435c2.815-2.928,5.079-6.292,6.802-9.947
		c1.279-2.711,2.136-5.624,3.176-8.449c0.443-1.205,1.424-1.943,2.246-1.671c1.136,0.374,2.183,2.207,1.812,3.204
		c-1.222,3.295-2.345,6.611-2.412,10.178c-0.006,0.318-0.016,0.637-0.003,0.954c0.134,3.827,2.092,4.214,5.119,2.849
		c4.012-1.809,6.656-5.184,9.05-8.683c1.357-1.985,2.235-4.294,3.446-6.391c0.292-0.507,1.107-1.111,1.572-1.031
		c0.828,0.142,1.817,0.599,2.275,1.251c0.387,0.551,0.259,1.592,0.109,2.367c-0.566,2.931-0.75,5.827,0.271,8.701
		c0.592,1.668,1.732,2.07,3.341,1.261c2.547-1.284,4.026-3.515,4.058-6.42c0.018-1.601-0.334-3.21-0.576-4.806
		c-0.213-1.395-1.093-2.295-2.228-3.1c-1.204-0.854-0.999-2.246-0.562-3.367c0.277-0.711,1.139-1.204,1.779-1.748
		c0.089-0.075,0.444,0.08,0.62,0.207c0.355,0.252,0.72,0.521,0.999,0.852c1.251,1.479,2.827,1.876,4.695,1.604
		c3.451-0.502,6.593-1.568,8.849-4.435c0.631-0.8,1.438-1.235,2.411-0.746c1.13,0.567,1.506,1.832,1.352,2.958
		c-0.49,3.566-0.966,7.146-0.31,10.73c0.126,0.051,0.253,0.104,0.38,0.154c0.521-0.705,1.077-1.387,1.557-2.119
		c1.305-1.996,2.649-3.973,3.848-6.032c1.714-2.944,4.065-5.241,7.029-6.817c2.636-1.401,4.807-1.195,6.305,0.819
		c0.454,0.612,0.665,1.406,1.07,2.296c1.037-0.908,1.955-1.824,2.99-2.582c0.952-0.697,1.989-1.309,3.062-1.799
		c1.383-0.632,2.599-0.311,3.528,0.889c0.84,1.083,1.247,2.268,1.126,3.75c-0.154,1.891-0.285,3.848,0.479,6.065
		c1.066-0.853,1.996-1.495,2.811-2.261c3.194-3.006,6.342-6.065,9.532-9.078c2.145-2.025,4.721-3.303,7.591-3.859
		c1.838-0.356,3.123,0.38,3.921,2.302c0.211,0.508,0.539,1.061,0.974,1.368c1.468,1.039,1.771,2.845,1.007,4.158
		c-1.184,2.031-0.919,4.121-0.855,6.262c0.13,4.48,0.255,8.962,0.267,13.443c0.004,1.697-0.315,3.396-0.514,5.361
		c0.499-0.205,0.817-0.287,1.082-0.455c4.532-2.895,9.067-5.782,13.58-8.708c3.646-2.362,7.303-4.71,10.877-7.177
		c4.496-3.105,9.002-6.211,13.343-9.53c4.946-3.78,9.794-7.702,14.533-11.739c4.129-3.518,8.107-7.216,12.039-10.953
		c4.02-3.818,7.982-7.701,11.814-11.707c3.135-3.277,5.91-6.866,8.396-10.689c1.838-2.826,3.452-5.75,4.401-8.957
		c1.124-3.793,1.982-7.697,0.302-11.572c-1.085-2.504-2.066-5.209-4.571-6.656c-1.545-0.893-3.335-1.522-5.093-1.85
		c-4.142-0.769-8.314-0.373-12.485,0.041c-6.886,0.684-13.184,3.015-19.03,6.615c-2.812,1.732-5.297,3.873-6.835,6.881
		c-0.943,1.845-1.307,3.832-0.77,5.877c0.349,1.325,0.834,2.615,1.273,3.968c-0.581,0.579-1.141,0.591-2.063,0.292
		c-2.964-0.962-2.95-3.544-3.141-5.77c-0.439-5.131,2.165-8.871,6.09-11.865c5.86-4.471,12.486-7.176,19.692-8.482
		c3.165-0.574,6.359-1.042,9.56-1.334c2.405-0.221,4.874-0.33,7.262-0.049c3.457,0.409,6.812,1.396,9.204,4.197
		c1.646,1.927,2.805,4.127,3.653,6.564c0.875,2.517,1.37,4.994,1.301,7.665c-0.08,3.038-0.927,5.845-1.914,8.67
		c-1.272,3.647-3.238,6.919-5.443,10.014c-2.169,3.045-4.667,5.859-7.073,8.729c-1.51,1.803-3.016,3.629-4.704,5.256
		c-3.498,3.372-7.132,6.601-10.678,9.921c-2.24,2.098-4.33,4.366-6.654,6.364c-4.661,4.006-9.367,7.967-14.187,11.779
		c-4.31,3.412-8.729,6.693-13.222,9.86c-4.659,3.284-9.44,6.395-14.21,9.515c-4.502,2.945-9.061,5.803-13.592,8.701
		c-0.673,0.428-1.294,0.957-2.01,1.293c-1.998,0.936-2.462,2.854-3.194,4.648c-0.75,1.84-1.587,3.648-2.489,5.419
		c-1.398,2.746-3.101,5.302-5.4,7.381c-1.786,1.615-3.764,2.928-6.259,3.239c-1.749,0.219-3.202-1.004-3.32-2.779
		c-0.214-3.242,1.26-5.801,3.196-8.193c2.939-3.631,6.52-6.57,10.243-9.33c1.122-0.831,1.711-1.823,1.927-3.137
		c0.669-4.062,1.076-8.142,0.92-12.271c-0.09-2.372-0.063-4.748-0.122-7.123c-0.008-0.321-0.124-0.806-0.338-0.911
		c-0.234-0.115-0.689,0.051-0.967,0.224c-1.252,0.781-2.441,1.665-3.715,2.407c-1.811,1.057-3.668,1.817-5.896,1.247
		c-1.496-0.383-2.094-1.446-2.682-2.626C391.745,92.945,391.668,92.604,391.474,92.036z M275.874,109.395
		c-0.719-0.949-1.255-1.65-1.786-2.355c-0.812-1.078-2.207-1.527-3.264-0.859c-1.334,0.842-2.638,1.762-3.815,2.804
		c-1.428,1.262-2.413,2.762-2.438,4.849c-0.028,2.557,1.398,3.721,3.797,2.771C271.939,115.188,274.03,112.248,275.874,109.395z
		 M244.271,112.2c-1.396,4.315-4.41,7.39-7.629,10.4c2.937,0.061,5.636,1.574,8.514,0.46c0.896-0.346,1.711-1.244,1.7-2.293
		C246.824,117.709,245.435,115.048,244.271,112.2z M406.139,83.32c-1.347-0.17-2.562-1.047-3.766-0.098
		c-1.522,1.201-3.069,2.396-4.425,3.772c-0.807,0.819-1.331,1.95-1.85,3.005c-0.19,0.389-0.135,1.318,0.037,1.383
		c0.503,0.186,1.24,0.266,1.673,0.019c1.853-1.062,3.716-2.144,5.407-3.436C404.668,86.855,405.807,85.395,406.139,83.32z
		 M148.412,136.096c0.038,0.236,0,0.529,0.128,0.698c0.406,0.537,0.793,1.294,1.34,1.459c0.477,0.144,1.24-0.296,1.729-0.671
		c0.453-0.347,0.769-0.918,1.042-1.443c0.919-1.767,1.838-3.562,1.368-5.65c-0.382-1.704-1.944-2.263-3.271-1.178
		C148.587,131.08,148.448,133.58,148.412,136.096z M393.429,131.097c2.948-0.014,7.02-6.546,7.957-9.491
		C398.204,124.231,395.062,126.89,393.429,131.097z M273.579,139.92c-1.763,1.855-3.628,3.668-3.151,6.547
		C272.369,144.703,272.928,142.289,273.579,139.92z"/>
	<path fill-rule="evenodd" clip-rule="evenodd" fill="#DECD9F" d="M198.699,39.435c-1.443,1.099-2.69,2.181-4.066,3.061
		c-1.468,0.938-3.029,1.749-4.603,2.505c-3.412,1.636-6.865,3.188-10.29,4.8c-2.126,1.001-4.205,2.108-6.354,3.055
		c-3.104,1.366-6.257,2.618-9.382,3.938c-2.373,1.001-4.726,2.05-7.102,3.042c-2.771,1.155-5.573,2.234-8.332,3.418
		c-2.842,1.219-5.627,2.574-8.478,3.771c-2.374,0.998-4.815,1.834-7.212,2.781c-1.667,0.658-3.299,1.402-4.962,2.073
		c-1.828,0.737-3.688,1.396-5.506,2.158c-1.455,0.61-2.86,1.339-4.3,1.987c-2.11,0.95-4.226,1.887-6.348,2.811
		c-4.223,1.84-8.425,3.729-12.684,5.48c-3.758,1.546-7.567,2.969-11.379,4.377c-4.665,1.724-9.334,3.439-14.042,5.039
		c-3.133,1.064-6.336,1.921-9.509,2.869c-0.762,0.229-1.51,0.539-2.289,0.666c-1.037,0.169-0.972,0.814-0.903,1.58
		c0.349,3.875,0.69,7.751,0.999,11.629c0.132,1.665,0.2,3.336,0.259,5.006c0.048,1.379-0.006,2.762,0.064,4.14
		c0.381,7.46,0.679,14.928,1.232,22.375c0.246,3.312,1.01,6.586,1.562,9.872c0.627,3.738,1.284,7.472,1.918,11.208
		c0.046,0.271,0.11,0.582,0.022,0.822c-0.268,0.741-0.475,1.939-0.949,2.068c-0.74,0.2-1.784-0.153-2.509-0.589
		c-1.493-0.895-1.41-2.585-1.623-4.061c-0.267-1.848-0.375-3.719-0.648-5.564c-0.739-4.988-1.727-9.948-2.246-14.958
		c-0.543-5.252-0.744-10.546-0.93-15.828c-0.187-5.321-0.11-10.651-0.265-15.976c-0.089-3.053-0.417-6.1-0.622-9.148
		c-0.078-1.158-0.668-1.33-1.694-1.074c-4.023,0.996-8.033,2.077-12.1,2.858c-3.669,0.704-7.393,1.205-11.116,1.521
		c-2.802,0.238-5.657,0.229-8.46-0.006c-4.204-0.348-8.139-1.729-11.517-4.299c-1.694-1.289-3.219-2.846-4.625-4.451
		c-1.131-1.293-1.585-2.929-1.096-4.693c0.414-1.494,2.165-2.031,3.313-1.007c0.949,0.845,1.686,1.717,1.44,3.192
		c-0.093,0.557,0.377,1.382,0.839,1.824c2.419,2.316,5.355,3.715,8.62,4.354c4.657,0.913,9.34,0.712,13.995-0.024
		c4.282-0.676,8.552-1.434,12.806-2.26c2.501-0.486,4.957-1.199,7.443-1.762c0.932-0.211,1.054-0.684,0.711-1.471
		c-0.221-0.506-0.497-1.025-0.558-1.56c-0.109-0.958,0.244-1.747,1.264-2.036c0.988-0.281,2.344,0.459,2.739,1.467
		c0.283,0.721,0.363,1.753,0.886,2.077c0.461,0.286,1.424-0.171,2.143-0.38c3.326-0.973,6.682-1.863,9.959-2.984
		c6.342-2.172,12.687-4.354,18.94-6.766c5.433-2.096,10.733-4.53,16.108-6.777c2.097-0.877,4.249-1.622,6.354-2.478
		c5.572-2.264,11.142-4.534,16.696-6.841c4.977-2.067,9.918-4.219,14.899-6.275c4.056-1.674,8.172-3.203,12.217-4.9
		c5.592-2.347,11.134-4.811,16.715-7.185c3.002-1.276,6.042-2.465,9.06-3.704c1.138-0.467,2.261-0.969,3.395-1.447
		c3.187-1.346,6.386-2.665,9.558-4.044C197.09,38.31,197.743,38.639,198.699,39.435z"/>
	<path fill-rule="evenodd" clip-rule="evenodd" fill="#DECD9F" d="M302.595,55.969c-2.481,0.221-3.708-1.24-3.086-3.672
		c0.197-0.771,0.289-1.588,0.607-2.303c0.258-0.576,0.751-1.406,1.2-1.446c0.573-0.051,1.423,0.431,1.772,0.944
		c0.792,1.159,1.424,2.447,1.978,3.744C305.479,54.201,303.917,55.852,302.595,55.969z"/>
	<path fill-rule="evenodd" clip-rule="evenodd" fill="#DECD9F" d="M364.062,35.67c-1.7,0.375-2.971-0.569-3.318-2.488
		c-0.182-1.007,1.724-3.002,2.992-3.184c0.905-0.129,2.422,1.176,2.502,2.306C366.348,33.826,366.021,35.693,364.062,35.67z"/>
</g>
</svg>
