<?xml version="1.0" encoding="utf-8"?>
<!-- Generator: Adobe Illustrator 16.0.0, SVG Export Plug-In . SVG Version: 6.00 Build 0)  -->
<!DOCTYPE svg PUBLIC "-//W3C//DTD SVG 1.1//EN" "http://www.w3.org/Graphics/SVG/1.1/DTD/svg11.dtd">
<svg version="1.1" id="Layer_1" xmlns="http://www.w3.org/2000/svg" xmlns:xlink="http://www.w3.org/1999/xlink" x="0px" y="0px"
	 width="508px" height="171px" viewBox="0 0 508 171" enable-background="new 0 0 508 171" xml:space="preserve">
<g>
	<path fill="#FFFBB0" d="M391.475,92.036c-1.259,1.06-2.332,2.032-3.479,2.911c-0.91,0.695-1.866,1.357-2.884,1.88
		c-1.295,0.664-2.709,0.509-3.641-0.548c-0.629-0.711-0.92-1.84-1.068-2.825c-0.252-1.681-0.271-3.396-0.394-5.097
		c-0.042-0.582-0.095-1.162-0.166-2.017c-0.772,0.396-1.471,0.571-1.905,1.009c-1.987,1.993-3.709,4.182-4.354,7.018
		c-0.396,1.738-0.8,3.475-1.156,5.22c-0.258,1.265-2.801,2.737-4.021,2.246c-0.25-0.101-0.561-0.429-0.573-0.665
		c-0.056-0.962-0.224-1.995,0.046-2.881c0.93-3.062,1.678-6.146,1.562-9.36c-0.022-0.631-0.35-1.45-0.819-1.819
		c-0.729-0.57-1.58-0.147-2.317,0.339c-2.428,1.596-3.959,3.866-5.33,6.397c-1.586,2.93-3.494,5.697-5.408,8.434
		c-0.601,0.857-1.647,1.421-2.539,2.052c-0.877,0.625-1.729,0.257-2.125-0.546c-0.741-1.501-1.602-3.059-1.824-4.674
		c-0.346-2.491-0.198-5.055-0.266-7.793c-0.297,0.048-0.722,0.021-1.051,0.185c-2.31,1.142-4.701,1.97-7.283,2.192
		c-0.901,0.078-1.155,0.576-1.072,1.486c0.193,2.1,0.382,4.209,0.355,6.312c-0.027,2.127-1.225,3.859-2.509,5.438
		c-1.233,1.516-2.692,2.797-4.597,3.512c-3.292,1.238-6.16-0.289-7.475-3.646c-0.438-1.122-0.797-2.273-1.238-3.551
		c-1.233,1.365-2.395,2.595-3.493,3.876c-2.658,3.098-5.825,5.489-9.853,6.351c-3.966,0.846-6.252-0.185-7.384-4.56
		c-0.058-0.222-0.157-0.431-0.308-0.824c-0.312,0.259-0.598,0.397-0.74,0.627c-2.738,4.36-6.3,8.041-9.818,11.738
		c-2.996,3.146-6.082,6.223-9.311,9.129c-2.523,2.272-3.829,4.963-4.57,8.252c-0.896,3.979-2.193,7.929-4.728,11.244
		c-1.025,1.339-2.552,2.185-4.341,2.231c-1.379,0.037-2.463-1.148-2.961-3.125c-0.89-3.519,0.148-6.543,2.457-9.188
		c2.246-2.578,4.588-5.072,6.828-7.656c0.443-0.512,0.777-1.231,0.887-1.899c0.504-3.09,0.994-6.188,1.313-9.299
		c0.194-1.886,0.079-3.804,0.077-5.705c0-0.293-0.135-0.588-0.266-1.114c-0.862,1.011-1.604,1.854-2.318,2.723
		c-2.29,2.782-5.312,4.343-8.797,4.815c-2.15,0.293-3.915-0.789-5.128-2.646c-0.318-0.487-0.668-0.957-1.097-1.565
		c-1.086,1.119-2.141,2.039-2.994,3.117c-2.791,3.529-6.361,5.981-10.428,7.776c-1.02,0.451-2.058,0.872-3.113,1.231
		c-1.775,0.604-3.545,0.298-5.271-0.229c-1.253-0.382-2.521-0.791-3.672-1.396c-0.521-0.274-0.839-1.024-1.127-1.616
		c-0.15-0.312-0.036-0.748-0.044-1.363c-1.645,0.662-3.162,1.127-4.54,1.856c-3.534,1.867-10.157,0.91-12.901-2.412
		c-0.914-1.105-1.871-2.182-2.709-3.344c-0.874-1.209-1.088-2.557-0.287-3.908c0.188-0.319,0.512-0.662,0.848-0.774
		c3.138-1.053,4.191-3.733,5.005-6.514c0.316-1.078,0.332-2.304,0.198-3.429c-0.077-0.646-0.613-1.396-1.166-1.758
		c-0.291-0.19-1.128,0.25-1.604,0.572c-1.848,1.26-2.793,3.229-3.367,5.236c-1.034,3.623-1.929,7.309-2.55,11.021
		c-0.348,2.086-0.099,4.283,0.007,6.424c0.113,2.289,0.363,4.571,0.581,6.854c0.135,1.428-0.527,2.313-2.001,2.577
		c-1.415,0.254-1.903-0.08-2.336-1.674c-1.146-4.211-2.277-8.424-3.422-12.633c-0.078-0.289-0.218-0.562-0.452-1.15
		c-0.53,0.859-0.871,1.507-1.301,2.09c-1.742,2.361-3.232,5.001-5.337,6.98c-3.168,2.98-7.087,4.328-11.451,2.715
		c-2.02-0.746-3.064-2.549-3.846-4.478c-0.168-0.414-0.393-0.807-0.591-1.209c-0.154-0.012-0.309-0.024-0.463-0.034
		c-0.312,0.81-0.777,1.596-0.907,2.436c-0.355,2.271-0.634,4.561-0.815,6.854c-0.111,1.414-1.695,2.969-2.997,2.491
		c-0.573-0.21-1.142-1.136-1.234-1.804c-0.179-1.283,0.094-2.626-0.026-3.924c-0.156-1.701-0.504-3.385-0.794-5.072
		c-0.03-0.169-0.224-0.311-0.531-0.713c-0.708,0.919-1.356,1.734-1.978,2.57c-1.926,2.588-3.798,5.217-5.777,7.763
		c-1.385,1.78-5.199,2.907-7.054,1.749c-0.329-0.205-0.704-0.383-0.95-0.666c-0.611-0.703-0.921-0.85-1.557,0.123
		c-1.485,2.271-3.743,3.938-6.596,3.275c-1.829-0.425-4.091-2.755-4.26-4.938c-0.061-0.775-0.238-1.543-0.363-2.314
		c-0.139-0.045-0.276-0.091-0.415-0.137c-0.678,1.021-1.377,2.027-2.03,3.064c-1.592,2.525-3.098,5.108-4.768,7.582
		c-0.981,1.451-2.647,2.133-4.281,1.893c-1.785-0.264-2.687-1.879-3.351-3.459c-1.184-2.816-1.159-5.835-1.391-8.809
		c-0.039-0.498-0.086-0.998-0.153-1.75c-0.401,0.328-0.651,0.445-0.771,0.645c-2.181,3.588-3.84,7.42-5.071,11.421
		c-0.721,2.343-1.215,4.753-1.794,7.138c-0.33,1.361-1.56,1.299-2.5,1.428c-1.071,0.148-1.773-0.737-1.857-1.676
		c-0.24-2.687-0.365-5.387-0.405-8.084c-0.021-1.377,0.248-2.76,0.361-4.141c0.021-0.256-0.075-0.521-0.171-1.115
		c-0.603,0.73-1.02,1.225-1.424,1.729c-2.391,2.987-4.612,6.133-7.216,8.922c-2.6,2.784-5.425,5.413-8.437,7.741
		c-3.263,2.521-6.996,4.313-11.213,4.682c-1.375,0.122-2.791,0.029-4.166-0.145c-1.374-0.174-2.226-1.407-2.124-2.756
		c0.087-1.144,1.414-1.898,2.344-1.238c1.648,1.168,3.373,0.746,5.042,0.287c2.727-0.752,5.392-1.768,7.653-3.492
		c2.423-1.85,4.899-3.709,6.969-5.922c3.043-3.256,5.906-6.713,8.546-10.303c2.154-2.933,4.283-6.019,5.651-9.353
		c1.147-2.798,1.27-6.041,1.688-9.108c0.771-5.652,1.42-11.32,2.133-16.98c0.132-1.045,0.311-2.213,1.558-2.41
		c1.232-0.193,1.784,0.845,2.265,1.787c0.144,0.281,0.309,0.599,0.306,0.898c-0.033,3.692,0.064,7.396-0.201,11.075
		c-0.204,2.835-0.729,5.669-1.381,8.441c-0.469,1.993-1.475,3.854-2.081,5.823c-1.062,3.461-1.526,7.035-1.879,10.619
		c0.11,0.037,0.22,0.072,0.329,0.107c0.42-0.83,0.86-1.65,1.257-2.491c1.356-2.874,2.682-5.77,4.722-8.243
		c0.497-0.604,1.12-1.295,1.812-1.486c0.633-0.174,1.607,0.064,2.136,0.488c1.774,1.426,1.663,3.571,1.853,5.59
		c0.263,2.806,0.553,5.607,0.884,8.406c0.056,0.478,0.37,0.922,0.71,1.729c0.855-1.021,1.62-1.768,2.183-2.641
		c2.5-3.883,4.861-7.855,7.437-11.688c1.521-2.262,3.508-4.152,5.977-5.416c2.139-1.096,4.567-0.926,6.561,1.258
		c1.821,1.993,3.079,4.194,2.803,7.092c-0.092,0.965,0.331,2.053,0.758,2.973c0.624,1.346,1.932,1.433,3.098,0.109
		c1.552-1.762,2.948-3.66,4.371-5.531c1.421-1.866,2.668-3.883,4.221-5.631c1.786-2.009,4.321-2.148,5.533,0.641
		c0.044,0.1,0.164,0.167,0.38,0.376c0.292-0.373,0.571-0.72,0.838-1.072c0.504-0.668,0.951-1.388,1.513-2.003
		c1.059-1.156,2.24-1.257,3.134-0.003c0.878,1.229,1.576,2.671,2.001,4.123c0.902,3.083,3.39,4.37,6.344,3.372
		c3.01-1.018,4.983-3.225,6.77-5.652c2.353-3.199,3.925-6.761,4.227-10.738c0.115-1.506-0.29-3.062-0.534-4.582
		c-0.655-4.097-1.403-8.177-2.007-12.279c-0.26-1.77-0.338-3.576-0.335-5.367c0.001-0.941,0.346-1.893,1.412-2.279
		c0.96-0.35,1.803-0.213,2.121,0.854c0.428,1.433,0.798,2.892,1.061,4.362c0.523,2.928,0.995,5.866,1.413,8.811
		c0.251,1.773,0.45,3.562,0.513,5.352c0.13,3.745,0.476,7.449,1.74,11.101c0.648-2.668,1.154-5.382,1.981-7.993
		c1.163-3.672,2.317-7.363,5.635-9.889c3.683-2.807,6.229-1.877,8.095,1.97c1.261,2.599,0.822,5.287,0.083,7.94
		c-0.729,2.625-2.148,4.859-4.019,6.797c-0.827,0.855-0.597,1.531,0.024,2.295c2.308,2.844,5.335,3.272,8.618,2.386
		c3.464-0.938,6.56-2.638,9.193-5.115c3.016-2.841,4.71-6.262,4.571-10.478c-0.047-1.434-0.195-2.87-0.167-4.303
		c0.036-1.813,1.594-2.826,2.855-1.871c0.51,0.386,1.074,1.025,1.148,1.608c0.389,3.052,2.137,5.565,3.137,8.366
		c1.119,3.135,2.544,6.181,2.696,9.588c0.006,0.146,0.099,0.289,0.262,0.736c1.515-1.519,2.955-2.873,4.29-4.325
		c1.455-1.583,2.893-3.196,4.184-4.912c1.045-1.39,1.861-2.95,2.783-4.433c2.09-3.363,5.03-5.326,8.979-6.11
		c2.378-0.474,4.104,0.22,5.809,1.618c0.854,0.701,1.416,0.591,1.551-0.365c0.159-1.134,0.912-1.632,1.791-1.492
		c0.709,0.113,1.455,0.719,1.934,1.311c0.31,0.386,0.365,1.199,0.195,1.709c-0.873,2.599-0.772,5.287-0.672,7.932
		c0.159,4.239,0.075,8.448-0.523,12.646c-0.036,0.261-0.008,0.527-0.01,0.957c0.365-0.168,0.647-0.219,0.812-0.385
		c4.391-4.469,8.795-8.922,13.137-13.436c2.815-2.928,5.079-6.292,6.803-9.947c1.279-2.711,2.136-5.624,3.176-8.449
		c0.443-1.205,1.424-1.942,2.246-1.671c1.136,0.374,2.183,2.207,1.812,3.204c-1.222,3.295-2.345,6.611-2.411,10.178
		c-0.007,0.318-0.017,0.637-0.004,0.955c0.135,3.826,2.092,4.213,5.119,2.848c4.012-1.809,6.656-5.184,9.051-8.682
		c1.356-1.986,2.234-4.295,3.445-6.392c0.292-0.507,1.107-1.111,1.572-1.031c0.828,0.142,1.816,0.599,2.275,1.251
		c0.387,0.551,0.258,1.592,0.108,2.367c-0.565,2.932-0.75,5.827,0.271,8.701c0.592,1.668,1.732,2.07,3.342,1.261
		c2.547-1.284,4.025-3.515,4.058-6.42c0.019-1.601-0.334-3.21-0.576-4.806c-0.213-1.396-1.093-2.295-2.228-3.1
		c-1.204-0.854-0.999-2.246-0.562-3.367c0.277-0.711,1.139-1.205,1.779-1.748c0.089-0.075,0.443,0.08,0.62,0.207
		c0.354,0.252,0.72,0.521,0.999,0.852c1.251,1.479,2.826,1.876,4.695,1.604c3.451-0.502,6.592-1.567,8.849-4.435
		c0.631-0.8,1.438-1.235,2.411-0.746c1.13,0.567,1.506,1.832,1.352,2.958c-0.49,3.566-0.966,7.146-0.31,10.73
		c0.126,0.051,0.253,0.104,0.38,0.154c0.521-0.705,1.076-1.388,1.557-2.119c1.305-1.996,2.649-3.974,3.848-6.033
		c1.715-2.943,4.065-5.24,7.029-6.816c2.637-1.401,4.807-1.195,6.305,0.819c0.455,0.612,0.666,1.406,1.07,2.296
		c1.037-0.908,1.955-1.824,2.99-2.582c0.952-0.697,1.989-1.309,3.062-1.799c1.383-0.632,2.599-0.311,3.527,0.889
		c0.84,1.083,1.247,2.268,1.126,3.75c-0.153,1.891-0.284,3.848,0.479,6.064c1.066-0.853,1.996-1.494,2.811-2.26
		c3.194-3.007,6.342-6.065,9.532-9.079c2.145-2.025,4.721-3.303,7.591-3.859c1.838-0.356,3.123,0.38,3.921,2.302
		c0.211,0.508,0.539,1.061,0.975,1.368c1.468,1.039,1.771,2.845,1.007,4.158c-1.185,2.032-0.919,4.122-0.855,6.262
		c0.13,4.48,0.255,8.962,0.268,13.443c0.004,1.697-0.315,3.396-0.515,5.361c0.499-0.205,0.817-0.287,1.082-0.455
		c4.532-2.896,9.067-5.783,13.58-8.709c3.646-2.361,7.304-4.709,10.877-7.177c4.496-3.104,9.002-6.211,13.343-9.53
		c4.946-3.78,9.795-7.702,14.533-11.739c4.129-3.518,8.107-7.216,12.039-10.953c4.021-3.818,7.982-7.701,11.814-11.707
		c3.135-3.277,5.91-6.866,8.396-10.689c1.838-2.826,3.452-5.75,4.401-8.957c1.124-3.793,1.981-7.697,0.302-11.572
		c-1.085-2.504-2.065-5.209-4.571-6.656c-1.545-0.893-3.335-1.522-5.093-1.85c-4.142-0.769-8.313-0.373-12.484,0.041
		c-6.887,0.684-13.185,3.015-19.03,6.615c-2.812,1.732-5.297,3.873-6.835,6.881c-0.943,1.845-1.308,3.832-0.771,5.877
		c0.35,1.325,0.834,2.615,1.273,3.968c-0.581,0.579-1.141,0.591-2.063,0.292c-2.964-0.962-2.949-3.544-3.141-5.77
		c-0.438-5.131,2.165-8.871,6.09-11.865c5.86-4.471,12.486-7.176,19.692-8.482c3.165-0.574,6.358-1.042,9.56-1.334
		c2.405-0.221,4.874-0.33,7.263-0.049c3.456,0.409,6.812,1.396,9.203,4.197c1.646,1.927,2.806,4.127,3.653,6.564
		c0.875,2.517,1.37,4.994,1.301,7.665c-0.08,3.038-0.927,5.845-1.914,8.67c-1.271,3.647-3.237,6.919-5.442,10.014
		c-2.169,3.045-4.667,5.859-7.073,8.729c-1.51,1.803-3.016,3.629-4.704,5.256c-3.498,3.372-7.132,6.601-10.678,9.921
		c-2.24,2.098-4.33,4.366-6.654,6.364c-4.661,4.006-9.367,7.967-14.187,11.779c-4.311,3.413-8.729,6.693-13.223,9.86
		c-4.659,3.284-9.439,6.395-14.21,9.516c-4.502,2.944-9.061,5.803-13.592,8.7c-0.673,0.429-1.294,0.957-2.01,1.294
		c-1.998,0.936-2.462,2.854-3.194,4.647c-0.75,1.84-1.587,3.647-2.489,5.419c-1.397,2.746-3.101,5.302-5.399,7.381
		c-1.786,1.615-3.765,2.928-6.259,3.239c-1.75,0.219-3.202-1.005-3.32-2.779c-0.214-3.242,1.26-5.801,3.195-8.192
		c2.939-3.631,6.521-6.57,10.243-9.33c1.122-0.832,1.712-1.823,1.928-3.138c0.669-4.062,1.076-8.142,0.92-12.271
		c-0.09-2.372-0.063-4.748-0.122-7.123c-0.008-0.321-0.124-0.807-0.338-0.911c-0.234-0.115-0.689,0.051-0.967,0.224
		c-1.253,0.781-2.441,1.665-3.716,2.407c-1.811,1.058-3.668,1.817-5.896,1.247c-1.496-0.383-2.094-1.446-2.682-2.626
		C391.745,92.945,391.668,92.604,391.475,92.036z M275.874,109.395c-0.72-0.949-1.255-1.649-1.786-2.354
		c-0.812-1.078-2.207-1.526-3.264-0.858c-1.334,0.842-2.639,1.762-3.815,2.803c-1.428,1.263-2.413,2.763-2.438,4.85
		c-0.027,2.557,1.398,3.721,3.798,2.771C271.939,115.188,274.029,112.248,275.874,109.395z M244.271,112.2
		c-1.396,4.315-4.41,7.39-7.629,10.399c2.937,0.062,5.636,1.574,8.514,0.461c0.896-0.347,1.711-1.244,1.7-2.293
		C246.824,117.709,245.435,115.048,244.271,112.2z M406.139,83.32c-1.347-0.17-2.562-1.047-3.766-0.098
		c-1.522,1.201-3.069,2.396-4.425,3.772c-0.808,0.818-1.331,1.949-1.851,3.005c-0.189,0.39-0.135,1.317,0.037,1.383
		c0.503,0.187,1.24,0.267,1.673,0.019c1.854-1.062,3.717-2.144,5.407-3.436C404.668,86.855,405.807,85.395,406.139,83.32z
		 M148.412,136.096c0.038,0.236,0,0.529,0.128,0.698c0.406,0.537,0.793,1.294,1.34,1.459c0.477,0.144,1.24-0.296,1.729-0.671
		c0.453-0.348,0.769-0.918,1.042-1.443c0.919-1.767,1.838-3.562,1.368-5.649c-0.382-1.704-1.944-2.263-3.271-1.179
		C148.587,131.08,148.448,133.58,148.412,136.096z M393.43,131.098c2.947-0.015,7.02-6.547,7.956-9.492
		C398.204,124.23,395.062,126.891,393.43,131.098z M273.579,139.92c-1.763,1.855-3.628,3.668-3.151,6.547
		C272.369,144.703,272.928,142.289,273.579,139.92z"/>
	<path fill="#FFFBB0" d="M198.699,39.435c-1.443,1.099-2.69,2.181-4.066,3.061c-1.468,0.938-3.029,1.749-4.603,2.505
		c-3.412,1.636-6.865,3.188-10.29,4.8c-2.126,1.001-4.205,2.108-6.354,3.055c-3.104,1.366-6.257,2.618-9.382,3.938
		c-2.373,1.001-4.726,2.05-7.102,3.042c-2.771,1.155-5.573,2.234-8.332,3.418c-2.842,1.219-5.627,2.574-8.478,3.771
		c-2.374,0.998-4.815,1.834-7.212,2.781c-1.667,0.658-3.299,1.402-4.962,2.073c-1.828,0.737-3.688,1.396-5.506,2.158
		c-1.455,0.61-2.86,1.339-4.3,1.987c-2.11,0.95-4.226,1.887-6.348,2.811c-4.223,1.84-8.425,3.729-12.684,5.48
		c-3.758,1.546-7.567,2.969-11.379,4.376c-4.665,1.725-9.334,3.439-14.042,5.039c-3.133,1.064-6.336,1.922-9.509,2.869
		c-0.762,0.229-1.51,0.539-2.289,0.666c-1.037,0.17-0.972,0.814-0.903,1.58c0.349,3.875,0.69,7.752,0.999,11.629
		c0.132,1.666,0.2,3.336,0.259,5.006c0.048,1.379-0.006,2.763,0.064,4.141c0.381,7.46,0.679,14.928,1.232,22.375
		c0.246,3.312,1.01,6.586,1.562,9.872c0.627,3.737,1.284,7.472,1.918,11.208c0.046,0.271,0.11,0.582,0.022,0.822
		c-0.268,0.74-0.475,1.938-0.949,2.067c-0.74,0.2-1.784-0.153-2.509-0.589c-1.493-0.895-1.41-2.585-1.623-4.061
		c-0.267-1.849-0.375-3.719-0.648-5.564c-0.739-4.988-1.727-9.947-2.246-14.958c-0.543-5.252-0.744-10.546-0.93-15.828
		c-0.187-5.321-0.11-10.651-0.265-15.976c-0.089-3.053-0.417-6.1-0.622-9.148c-0.078-1.158-0.668-1.33-1.694-1.074
		c-4.023,0.996-8.033,2.077-12.1,2.858c-3.669,0.704-7.393,1.205-11.116,1.521c-2.802,0.238-5.657,0.229-8.46-0.006
		c-4.204-0.348-8.139-1.729-11.517-4.299c-1.694-1.289-3.219-2.846-4.625-4.451c-1.131-1.293-1.585-2.929-1.096-4.692
		c0.414-1.494,2.165-2.031,3.313-1.007c0.949,0.845,1.686,1.717,1.44,3.191c-0.093,0.557,0.377,1.383,0.839,1.824
		c2.419,2.316,5.355,3.715,8.62,4.354c4.657,0.914,9.34,0.713,13.995-0.023c4.282-0.676,8.552-1.434,12.806-2.26
		c2.501-0.486,4.957-1.199,7.443-1.762c0.932-0.212,1.054-0.685,0.711-1.472c-0.221-0.506-0.497-1.024-0.558-1.56
		c-0.109-0.959,0.244-1.748,1.264-2.036c0.988-0.281,2.344,0.459,2.739,1.467c0.283,0.721,0.363,1.753,0.886,2.077
		c0.461,0.285,1.424-0.172,2.143-0.381c3.326-0.973,6.682-1.862,9.959-2.983c6.342-2.172,12.687-4.354,18.94-6.766
		c5.433-2.096,10.733-4.53,16.108-6.777c2.097-0.877,4.249-1.622,6.354-2.478c5.572-2.264,11.142-4.534,16.696-6.841
		c4.977-2.067,9.918-4.219,14.899-6.275c4.056-1.674,8.172-3.203,12.217-4.9c5.592-2.347,11.134-4.811,16.715-7.185
		c3.002-1.276,6.042-2.465,9.06-3.704c1.138-0.467,2.261-0.969,3.395-1.447c3.187-1.346,6.386-2.665,9.558-4.044
		C197.09,38.31,197.743,38.639,198.699,39.435z"/>
	<path fill="#FFFBB0" d="M302.596,55.969c-2.481,0.221-3.709-1.24-3.087-3.672c0.197-0.771,0.289-1.588,0.607-2.303
		c0.258-0.576,0.751-1.406,1.2-1.446c0.572-0.051,1.423,0.431,1.771,0.944c0.792,1.159,1.424,2.447,1.979,3.744
		C305.479,54.201,303.917,55.852,302.596,55.969z"/>
	<path fill="#FFFBB0" d="M364.062,35.67c-1.701,0.375-2.972-0.569-3.318-2.488c-0.182-1.007,1.724-3.002,2.992-3.184
		c0.904-0.129,2.422,1.176,2.502,2.306C366.348,33.826,366.021,35.693,364.062,35.67z"/>
</g>
</svg>
