<?xml version="1.0" encoding="utf-8"?>
<!-- Generator: Adobe Illustrator 16.0.0, SVG Export Plug-In . SVG Version: 6.00 Build 0)  -->
<!DOCTYPE svg PUBLIC "-//W3C//DTD SVG 1.1//EN" "http://www.w3.org/Graphics/SVG/1.1/DTD/svg11.dtd">
<svg version="1.1" id="Layer_1" xmlns="http://www.w3.org/2000/svg" xmlns:xlink="http://www.w3.org/1999/xlink" x="0px" y="0px"
	 width="508px" height="129.334px" viewBox="0 28 508 129.334" enable-background="new 0 28 508 129.334" xml:space="preserve">
<g>
	<path fill="#FFFBB0" d="M384.073,110.758c-1.393,0.876-2.589,1.691-3.847,2.404c-0.997,0.563-2.035,1.088-3.115,1.465
		c-1.374,0.479-2.753,0.131-3.53-1.044c-0.525-0.79-0.658-1.948-0.67-2.945c-0.018-1.699,0.199-3.4,0.312-5.103
		c0.038-0.582,0.065-1.164,0.113-2.02c-0.82,0.285-1.536,0.363-2.026,0.736c-2.243,1.701-4.249,3.632-5.279,6.352
		c-0.631,1.668-1.271,3.332-1.863,5.011c-0.43,1.218-3.151,2.326-4.291,1.672c-0.234-0.134-0.497-0.502-0.477-0.737
		c0.077-0.961,0.053-2.007,0.441-2.848c1.343-2.905,2.508-5.857,2.836-9.056c0.065-0.628-0.146-1.485-0.561-1.915
		c-0.645-0.665-1.545-0.363-2.342,0.017c-2.625,1.246-4.454,3.284-6.16,5.603c-1.975,2.684-4.245,5.162-6.518,7.609
		c-0.713,0.767-1.827,1.181-2.797,1.683c-0.955,0.498-1.748,0.017-2.03-0.833c-0.527-1.589-1.165-3.25-1.163-4.881
		c0-2.515,0.499-5.033,0.81-7.755c-0.301,0.007-0.718-0.079-1.066,0.038c-2.444,0.812-4.928,1.304-7.516,1.169
		c-0.903-0.047-1.224,0.412-1.267,1.324c-0.098,2.106-0.201,4.222-0.517,6.302c-0.32,2.103-1.744,3.654-3.233,5.041
		c-1.431,1.331-3.052,2.399-5.036,2.845c-3.432,0.773-6.062-1.134-6.902-4.641c-0.279-1.171-0.476-2.361-0.737-3.687
		c-1.409,1.182-2.729,2.24-3.993,3.357c-3.06,2.703-6.525,4.636-10.633,4.935c-4.045,0.292-6.167-1.043-6.687-5.532
		c-0.026-0.228-0.097-0.448-0.191-0.859c-0.345,0.214-0.646,0.312-0.819,0.52c-3.312,3.941-7.347,7.098-11.34,10.275
		c-3.401,2.703-6.881,5.326-10.479,7.76c-2.812,1.904-4.477,4.389-5.663,7.545c-1.435,3.818-3.264,7.552-6.23,10.486
		c-1.199,1.185-2.828,1.812-4.606,1.613c-1.375-0.153-2.288-1.477-2.509-3.503c-0.399-3.607,1.05-6.461,3.705-8.764
		c2.579-2.244,5.242-4.392,7.816-6.644c0.51-0.445,0.939-1.112,1.14-1.759c0.925-2.991,1.837-5.992,2.581-9.029
		c0.452-1.842,0.602-3.757,0.861-5.641c0.041-0.29-0.052-0.601-0.109-1.14c-0.993,0.882-1.845,1.614-2.671,2.377
		c-2.651,2.44-5.859,3.57-9.376,3.56c-2.171-0.006-3.776-1.321-4.725-3.326c-0.25-0.527-0.532-1.04-0.873-1.702
		c-1.229,0.959-2.401,1.726-3.395,2.676c-3.25,3.111-7.124,5.049-11.399,6.267c-1.072,0.307-2.159,0.581-3.253,0.792
		c-1.841,0.354-3.552-0.193-5.189-0.952c-1.188-0.551-2.388-1.131-3.445-1.889c-0.479-0.344-0.69-1.13-0.894-1.756
		c-0.105-0.329,0.067-0.746,0.145-1.356c-1.721,0.43-3.287,0.681-4.752,1.214c-3.758,1.363-10.186-0.496-12.446-4.165
		c-0.753-1.221-1.553-2.418-2.223-3.685c-0.7-1.317-0.727-2.682,0.253-3.91c0.23-0.291,0.598-0.586,0.947-0.65
		c3.252-0.611,4.665-3.121,5.854-5.763c0.461-1.024,0.646-2.236,0.668-3.369c0.013-0.65-0.415-1.468-0.913-1.901
		c-0.262-0.229-1.152,0.092-1.667,0.346c-2.003,0.993-3.211,2.813-4.056,4.724c-1.523,3.445-2.917,6.973-4.043,10.565
		c-0.631,2.018-0.687,4.229-0.876,6.363c-0.204,2.283-0.27,4.578-0.368,6.869c-0.063,1.433-0.841,2.219-2.337,2.277
		c-1.436,0.057-1.874-0.341-2.083-1.979c-0.556-4.328-1.096-8.657-1.65-12.983c-0.038-0.297-0.139-0.587-0.29-1.202
		c-0.643,0.778-1.07,1.373-1.576,1.892c-2.051,2.099-3.89,4.508-6.247,6.179c-3.548,2.517-7.615,3.312-11.716,1.113
		c-1.898-1.017-2.684-2.946-3.193-4.964c-0.11-0.434-0.278-0.854-0.419-1.279c-0.151-0.032-0.303-0.066-0.454-0.098
		c-0.42,0.759-0.989,1.474-1.233,2.288c-0.665,2.2-1.256,4.43-1.751,6.676c-0.304,1.386-2.087,2.707-3.311,2.055
		c-0.539-0.286-0.975-1.282-0.974-1.956c0-1.296,0.455-2.588,0.515-3.89c0.079-1.707-0.033-3.422-0.088-5.134
		c-0.007-0.171-0.179-0.338-0.428-0.779c-0.828,0.812-1.582,1.531-2.313,2.273c-2.264,2.299-4.479,4.645-6.79,6.894
		c-1.617,1.573-5.549,2.164-7.228,0.762c-0.297-0.248-0.645-0.476-0.849-0.79c-0.508-0.78-0.795-0.969-1.56-0.093
		c-1.783,2.046-4.249,3.385-6.984,2.337c-1.753-0.673-3.673-3.292-3.54-5.478c0.046-0.776-0.023-1.561-0.041-2.342
		c-0.132-0.063-0.261-0.128-0.393-0.192c-0.812,0.918-1.643,1.818-2.433,2.756c-1.924,2.282-3.771,4.633-5.766,6.854
		c-1.171,1.302-2.916,1.748-4.5,1.285c-1.732-0.507-2.403-2.231-2.843-3.888c-0.785-2.952-0.345-5.938-0.166-8.916
		c0.03-0.499,0.052-1,0.09-1.754c-0.442,0.27-0.706,0.352-0.853,0.532c-2.654,3.253-4.825,6.82-6.595,10.614
		c-1.037,2.221-1.858,4.54-2.76,6.822c-0.514,1.303-1.723,1.072-2.672,1.07c-1.081,0-1.655-0.975-1.609-1.915
		c0.132-2.694,0.38-5.386,0.712-8.063c0.168-1.366,0.625-2.699,0.927-4.051c0.056-0.251-0.002-0.527-0.016-1.129
		c-0.698,0.641-1.179,1.073-1.648,1.518c-2.78,2.63-5.413,5.439-8.375,7.844c-2.959,2.399-6.118,4.614-9.422,6.506
		c-3.579,2.048-7.523,3.31-11.75,3.094c-1.379-0.068-2.769-0.354-4.106-0.717c-1.337-0.361-2.011-1.7-1.725-3.021
		c0.244-1.121,1.662-1.686,2.492-0.904c1.472,1.384,3.238,1.203,4.955,0.979c2.805-0.369,5.584-1.009,8.061-2.405
		c2.655-1.499,5.363-3,7.718-4.906c3.462-2.807,6.773-5.836,9.882-9.028c2.537-2.608,5.07-5.372,6.885-8.486
		c1.521-2.613,2.089-5.809,2.925-8.789c1.542-5.492,2.964-11.018,4.45-16.525c0.275-1.017,0.613-2.149,1.875-2.173
		c1.247-0.022,1.651,1.083,1.998,2.082c0.104,0.298,0.224,0.635,0.18,0.932c-0.541,3.653-0.955,7.334-1.724,10.942
		c-0.592,2.78-1.502,5.515-2.53,8.171c-0.739,1.91-1.991,3.615-2.862,5.481c-1.528,3.282-2.48,6.758-3.323,10.26
		c0.104,0.052,0.208,0.102,0.311,0.151c0.531-0.765,1.08-1.517,1.588-2.294c1.739-2.66,3.45-5.346,5.811-7.516
		c0.576-0.53,1.288-1.128,2-1.223c0.651-0.085,1.583,0.285,2.049,0.778c1.561,1.656,1.156,3.766,1.066,5.791
		c-0.126,2.815-0.224,5.63-0.282,8.448c-0.01,0.48,0.24,0.964,0.465,1.81c0.987-0.894,1.848-1.527,2.526-2.315
		c3.011-3.501,5.896-7.111,8.975-10.552c1.818-2.031,4.046-3.63,6.666-4.542c2.27-0.791,4.651-0.289,6.325,2.148
		c1.529,2.225,2.473,4.578,1.8,7.41c-0.224,0.943,0.045,2.079,0.342,3.049c0.433,1.419,1.716,1.685,3.054,0.535
		c1.779-1.531,3.423-3.22,5.09-4.877c1.665-1.653,3.177-3.479,4.956-4.997c2.046-1.743,4.576-1.533,5.393,1.396
		c0.03,0.104,0.139,0.188,0.325,0.425c0.34-0.329,0.664-0.635,0.978-0.947c0.591-0.592,1.133-1.243,1.774-1.775
		c1.208-0.999,2.391-0.937,3.104,0.429c0.701,1.339,1.194,2.862,1.415,4.359c0.469,3.178,2.756,4.795,5.82,4.213
		c3.121-0.594,5.379-2.508,7.483-4.667c2.771-2.845,4.818-6.156,5.665-10.054c0.321-1.476,0.134-3.073,0.102-4.612
		c-0.085-4.147-0.264-8.292-0.298-12.438c-0.014-1.789,0.157-3.589,0.407-5.362c0.131-0.932,0.603-1.827,1.712-2.063
		c0.999-0.214,1.815,0.038,1.983,1.139c0.227,1.478,0.392,2.974,0.45,4.467c0.115,2.972,0.178,5.947,0.187,8.921
		c0.004,1.791-0.045,3.591-0.229,5.371c-0.387,3.728-0.554,7.444,0.196,11.234c1.009-2.553,1.883-5.172,3.062-7.645
		c1.658-3.477,3.309-6.974,6.943-9.019c4.034-2.273,6.428-1.002,7.747,3.065c0.892,2.747,0.086,5.35-1.011,7.876
		c-1.083,2.5-2.796,4.518-4.917,6.179c-0.937,0.733-0.802,1.435-0.292,2.276c1.895,3.135,4.834,3.976,8.208,3.55
		c3.56-0.453,6.86-1.71,9.809-3.802c3.378-2.398,5.527-5.554,5.97-9.748c0.15-1.427,0.201-2.87,0.427-4.285
		c0.285-1.791,1.967-2.58,3.085-1.46c0.452,0.452,0.922,1.163,0.916,1.751c-0.035,3.076,1.35,5.807,1.955,8.718
		c0.677,3.26,1.669,6.473,1.351,9.868c-0.014,0.146,0.058,0.3,0.158,0.766c1.71-1.296,3.323-2.439,4.845-3.694
		c1.659-1.367,3.305-2.768,4.82-4.289c1.228-1.232,2.254-2.666,3.375-4.008c2.535-3.043,5.718-4.583,9.736-4.816
		c2.42-0.142,4.034,0.783,5.53,2.402c0.749,0.812,1.321,0.78,1.587-0.148c0.313-1.101,1.128-1.49,1.979-1.231
		c0.688,0.21,1.343,0.912,1.735,1.564c0.253,0.425,0.196,1.238-0.042,1.72c-1.223,2.454-1.493,5.131-1.757,7.764
		c-0.426,4.221-1.089,8.378-2.26,12.454c-0.071,0.253-0.08,0.521-0.141,0.946c0.385-0.116,0.671-0.127,0.857-0.269
		c4.964-3.822,9.939-7.627,14.86-11.5c3.192-2.513,5.897-5.533,8.107-8.916c1.641-2.51,2.89-5.276,4.309-7.932
		c0.605-1.133,1.678-1.729,2.455-1.347c1.073,0.527,1.857,2.487,1.353,3.424c-1.663,3.095-3.232,6.226-3.789,9.749
		c-0.05,0.313-0.104,0.628-0.135,0.945c-0.394,3.808,1.492,4.46,4.679,3.524c4.222-1.238,7.306-4.218,10.159-7.353
		c1.617-1.781,2.805-3.947,4.292-5.856c0.359-0.462,1.25-0.949,1.699-0.806c0.801,0.255,1.717,0.843,2.082,1.553
		c0.307,0.599,0.036,1.612-0.219,2.359c-0.964,2.826-1.545,5.668-0.93,8.655c0.356,1.733,1.431,2.289,3.137,1.709
		c2.699-0.922,4.471-2.927,4.902-5.801c0.239-1.582,0.111-3.225,0.091-4.839c-0.019-1.411-0.767-2.424-1.779-3.377
		c-1.075-1.012-0.681-2.362-0.094-3.412c0.372-0.666,1.294-1.037,2.003-1.486c0.099-0.062,0.428,0.14,0.586,0.29
		c0.316,0.299,0.641,0.614,0.872,0.98c1.035,1.637,2.541,2.248,4.43,2.235c3.487-0.022,6.745-0.646,9.375-3.175
		c0.734-0.705,1.595-1.025,2.49-0.407c1.042,0.717,1.24,2.022,0.932,3.116c-0.976,3.465-1.939,6.945-1.783,10.586
		c0.118,0.067,0.236,0.137,0.355,0.205c0.613-0.627,1.257-1.227,1.833-1.885c1.567-1.798,3.171-3.571,4.642-5.446
		c2.104-2.68,4.748-4.631,7.9-5.784c2.805-1.024,4.926-0.522,6.132,1.68c0.367,0.668,0.467,1.483,0.744,2.421
		c1.152-0.757,2.188-1.538,3.317-2.146c1.039-0.56,2.15-1.023,3.281-1.361c1.456-0.436,2.616,0.05,3.371,1.366
		c0.683,1.188,0.923,2.418,0.599,3.869c-0.412,1.852-0.811,3.772-0.359,6.073c1.174-0.698,2.183-1.205,3.095-1.852
		c3.578-2.539,7.116-5.135,10.691-7.681c2.402-1.71,5.13-2.622,8.05-2.777c1.869-0.1,3.041,0.807,3.566,2.82
		c0.139,0.531,0.388,1.125,0.777,1.489c1.311,1.23,1.362,3.061,0.425,4.256c-1.453,1.85-1.478,3.956-1.709,6.085
		c-0.488,4.456-0.981,8.912-1.586,13.353c-0.229,1.682-0.779,3.32-1.247,5.239c0.522-0.134,0.849-0.172,1.134-0.302
		c4.888-2.244,9.777-4.479,14.649-6.757c3.938-1.837,7.883-3.659,11.762-5.611c4.881-2.456,9.771-4.913,14.527-7.603
		c5.42-3.063,10.762-6.28,16.011-9.627c4.574-2.917,9.023-6.031,13.432-9.191c4.508-3.229,8.967-6.529,13.313-9.97
		c3.557-2.814,6.799-5.987,9.787-9.432c2.209-2.546,4.211-5.22,5.592-8.266c1.636-3.602,3.022-7.351,1.893-11.42
		c-0.73-2.629-1.329-5.444-3.612-7.222c-1.407-1.097-3.094-1.967-4.79-2.534c-3.996-1.332-8.183-1.514-12.371-1.677
		c-6.915-0.271-13.474,1.171-19.759,3.932c-3.024,1.329-5.78,3.107-7.718,5.875c-1.188,1.697-1.822,3.615-1.572,5.715
		c0.164,1.36,0.467,2.705,0.716,4.105c-0.655,0.494-1.211,0.429-2.084,0.005c-2.804-1.361-2.434-3.916-2.316-6.147
		c0.271-5.142,3.365-8.489,7.665-10.914c6.42-3.622,13.354-5.389,20.672-5.691c3.214-0.133,6.441-0.157,9.652-0.005
		c2.413,0.112,4.873,0.344,7.2,0.951c3.367,0.881,6.555,2.32,8.538,5.424c1.365,2.135,2.211,4.474,2.715,7.004
		c0.521,2.614,0.67,5.135,0.233,7.771c-0.497,2.998-1.723,5.662-3.089,8.324c-1.762,3.438-4.159,6.408-6.77,9.169
		c-2.566,2.718-5.429,5.161-8.207,7.673c-1.743,1.578-3.486,3.179-5.383,4.558c-3.929,2.858-7.973,5.557-11.941,8.357
		c-2.508,1.77-4.89,3.729-7.467,5.388c-5.168,3.326-10.375,6.602-15.673,9.714c-4.739,2.787-9.567,5.428-14.454,7.946
		c-5.066,2.611-10.229,5.034-15.385,7.469c-4.864,2.297-9.772,4.501-14.659,6.747c-0.726,0.332-1.413,0.77-2.169,1.005
		c-2.107,0.651-2.831,2.487-3.804,4.163c-0.996,1.72-2.073,3.395-3.211,5.025c-1.763,2.527-3.801,4.824-6.364,6.567
		c-1.991,1.354-4.132,2.382-6.645,2.347c-1.764-0.024-3.034-1.436-2.906-3.21c0.234-3.24,2.046-5.572,4.292-7.674
		c3.411-3.192,7.362-5.61,11.43-7.832c1.226-0.67,1.946-1.57,2.342-2.843c1.222-3.931,2.187-7.916,2.6-12.026
		c0.237-2.362,0.591-4.712,0.859-7.072c0.037-0.319-0.012-0.816-0.209-0.949c-0.216-0.146-0.69-0.045-0.988,0.089
		c-1.349,0.601-2.647,1.312-4.012,1.872c-1.939,0.799-3.884,1.296-6.011,0.424c-1.43-0.585-1.875-1.721-2.295-2.97
		C384.217,111.695,384.188,111.346,384.073,110.758z M267.185,112.04c-0.583-1.04-1.017-1.807-1.445-2.578
		c-0.656-1.18-1.977-1.815-3.114-1.3c-1.438,0.65-2.856,1.382-4.165,2.251c-1.588,1.055-2.771,2.404-3.083,4.468
		c-0.379,2.528,0.873,3.878,3.38,3.268C262.489,117.236,264.964,114.612,267.185,112.04z M235.484,110.469
		c-1.977,4.082-5.385,6.713-8.987,9.251c2.9,0.465,5.365,2.335,8.37,1.628c0.935-0.22,1.866-0.997,1.999-2.037
		C237.255,116.276,236.246,113.449,235.484,110.469z M399.798,104.143c-1.311-0.354-2.393-1.39-3.717-0.615
		c-1.673,0.979-3.369,1.951-4.901,3.127c-0.913,0.699-1.587,1.748-2.247,2.722c-0.24,0.36-0.314,1.286-0.153,1.375
		c0.473,0.254,1.192,0.435,1.654,0.248c1.982-0.796,3.977-1.611,5.829-2.658C397.854,107.442,399.184,106.152,399.798,104.143z
		 M137.249,120.943c0.005,0.239-0.073,0.524,0.031,0.709c0.328,0.588,0.607,1.391,1.126,1.63c0.453,0.208,1.27-0.123,1.805-0.427
		c0.497-0.282,0.888-0.804,1.23-1.286c1.153-1.623,2.311-3.274,2.133-5.407c-0.144-1.74-1.614-2.509-3.078-1.618
		C138.112,115.999,137.631,118.456,137.249,120.943z M380.634,149.717c2.921,0.391,7.854-5.519,9.187-8.308
		C386.308,143.571,382.83,145.774,380.634,149.717z M260.71,141.959c-2.002,1.595-4.099,3.134-4.022,6.051
		C258.853,146.53,259.738,144.216,260.71,141.959z"/>
	<path fill="#FFFBB0" d="M200.362,32.124c-1.581,0.89-2.965,1.79-4.449,2.472c-1.583,0.727-3.241,1.315-4.904,1.847
		c-3.604,1.151-7.238,2.213-10.853,3.338c-2.243,0.699-4.455,1.51-6.714,2.152c-3.263,0.926-6.558,1.732-9.835,2.609
		c-2.488,0.665-4.963,1.38-7.453,2.036c-2.904,0.763-5.827,1.446-8.723,2.239c-2.983,0.816-5.928,1.775-8.917,2.568
		c-2.489,0.662-5.021,1.154-7.526,1.762c-1.742,0.422-3.46,0.935-5.2,1.37c-1.912,0.479-3.845,0.875-5.75,1.38
		c-1.525,0.404-3.017,0.933-4.533,1.376c-2.221,0.651-4.445,1.288-6.674,1.911c-4.436,1.241-8.858,2.534-13.317,3.682
		c-3.936,1.014-7.904,1.899-11.873,2.769c-4.858,1.066-9.719,2.122-14.602,3.059c-3.25,0.623-6.54,1.031-9.813,1.533
		c-0.786,0.122-1.57,0.326-2.359,0.344c-1.05,0.026-1.074,0.673-1.111,1.441c-0.188,3.886-0.384,7.773-0.611,11.656
		c-0.099,1.668-0.261,3.332-0.433,4.994c-0.142,1.373-0.386,2.735-0.506,4.11c-0.649,7.441-1.382,14.879-1.859,22.331
		c-0.213,3.315,0.093,6.663,0.188,9.993c0.107,3.788,0.243,7.578,0.357,11.366c0.008,0.274,0.028,0.591-0.092,0.817
		c-0.367,0.696-0.737,1.854-1.225,1.917c-0.76,0.096-1.746-0.397-2.404-0.929c-1.356-1.092-1.041-2.755-1.049-4.245
		c-0.01-1.868,0.141-3.735,0.124-5.601c-0.045-5.043-0.341-10.091-0.166-15.125c0.185-5.277,0.714-10.548,1.257-15.806
		c0.547-5.297,1.357-10.565,1.937-15.86c0.332-3.036,0.426-6.099,0.643-9.147c0.082-1.158-0.479-1.41-1.53-1.297
		c-4.122,0.433-8.242,0.952-12.378,1.166c-3.731,0.192-7.489,0.176-11.22-0.023c-2.809-0.15-5.635-0.552-8.379-1.17
		c-4.116-0.923-7.824-2.833-10.816-5.843c-1.5-1.51-2.796-3.262-3.968-5.045c-0.942-1.436-1.167-3.119-0.44-4.798
		c0.616-1.423,2.424-1.714,3.421-0.542c0.823,0.967,1.433,1.933,0.987,3.359c-0.169,0.539,0.183,1.421,0.58,1.922
		c2.077,2.627,4.793,4.417,7.939,5.499c4.487,1.546,9.153,1.992,13.865,1.903c4.334-0.08,8.668-0.243,12.995-0.476
		c2.544-0.138,5.075-0.505,7.615-0.721c0.953-0.082,1.138-0.533,0.907-1.359c-0.149-0.532-0.352-1.083-0.338-1.622
		c0.024-0.965,0.482-1.698,1.532-1.843c1.018-0.143,2.259,0.777,2.511,1.83c0.181,0.753,0.118,1.786,0.591,2.179
		c0.418,0.346,1.435,0.026,2.175-0.082c3.428-0.505,6.875-0.925,10.275-1.584c6.581-1.278,13.166-2.566,19.691-4.095
		c5.669-1.328,11.254-3.009,16.888-4.495c2.197-0.58,4.432-1.022,6.635-1.58c5.83-1.476,11.659-2.957,17.478-4.478
		c5.214-1.362,10.404-2.814,15.621-4.165c4.248-1.1,8.535-2.048,12.775-3.172c5.861-1.555,11.69-3.233,17.545-4.816
		c3.149-0.851,6.324-1.61,9.483-2.421c1.191-0.306,2.373-0.649,3.562-0.966c3.342-0.894,6.692-1.761,10.023-2.69
		C198.922,30.788,199.524,31.204,200.362,32.124z"/>
	<path fill="#FFFBB0" d="M301.005,62.8c-2.488-0.123-3.503-1.738-2.552-4.062c0.301-0.736,0.505-1.533,0.918-2.197
		c0.335-0.535,0.938-1.289,1.388-1.267c0.574,0.028,1.351,0.623,1.625,1.179c0.625,1.257,1.073,2.62,1.444,3.98
		C304.104,61.446,302.33,62.867,301.005,62.8z"/>
	<path fill="#FFFBB0" d="M364.681,51.155c-1.736,0.137-2.865-0.972-2.944-2.921c-0.041-1.023,2.12-2.736,3.401-2.742
		c0.914-0.003,2.237,1.498,2.161,2.628C367.198,49.643,366.618,51.447,364.681,51.155z"/>
</g>
</svg>
